# File produced by AccuTrans 3D

v 0 -4.49 0
v 3.25 -2.01 2.36
v -1.24 -2.01 3.82
v -4.02 -2.01 0
v -1.24 -2.01 -3.82
v 3.25 -2.01 -2.36
v 1.24 2.01 3.82
v -3.25 2.01 2.36
v -3.25 2.01 -2.36
v 1.24 2.01 -3.82
v 4.02 2.01 0
v 0 4.49 0
v -.73 -3.82 2.24
v 1.91 -3.82 1.39
v 1.18 -2.36 3.63
v 3.82 -2.36 0
v 1.91 -3.82 -1.39
v -2.36 -3.82 0
v -3.09 -2.36 2.24
v -.73 -3.82 -2.24
v -3.09 -2.36 -2.24
v 1.18 -2.36 -3.63
v 4.27 0 1.39
v 4.27 0 -1.39
v 0 0 4.49
v 2.64 0 3.63
v -4.27 0 1.39
v -2.64 0 3.63
v -2.64 0 -3.63
v -4.27 0 -1.39
v 2.64 0 -3.63
v 0 0 -4.49
v 3.09 2.36 2.24
v -1.18 2.36 3.63
v -3.82 2.36 0
v -1.18 2.36 -3.63
v 3.09 2.36 -2.24
v .73 3.82 2.24
v 2.36 3.82 0
v -1.91 3.82 1.39
v -1.91 3.82 -1.39
v .73 3.82 -2.24
v -2.44 .11 7.44
v -2.64 .11 7.39
v -2.87 .11 7.3
v -3.03 .12 7.22
v -3.18 .13 7.09
v -3.28 .17 6.88
v -3.19 .23 6.63
v -2.49 .39 6.23
v -2.15 .44 6.13
v -2.06 .46 6.11
v -1.87 .48 6.1
v -1.51 .5 6.09
v -1.33 .51 6.11
v -1.18 .51 6.14
v -1.06 .5 6.18
v -.95 .5 6.22
v -.83 .48 6.3
v -.75 .46 6.4
v -.23 .66 5.65
v .24 .66 5.65
v -1.82 .15 7.46
v -2.03 .13 7.49
v -2.08 .13 7.49
v -2.62 .19 7.06
v -2.48 .17 7.18
v -2.33 .17 7.24
v -2.29 .17 7.25
v -2.24 .17 7.27
v -1.97 .18 7.31
v -1.79 .2 7.28
v -1.65 .21 7.24
v -1.42 .25 7.12
v -1 .4 6.6
v -1.13 .44 6.42
v -1.18 .44 6.39
v -1.25 .45 6.37
v -1.32 .45 6.35
v -1.36 .45 6.35
v -1.51 .44 6.33
v -1.59 .44 6.34
v -1.84 .41 6.37
v -1.99 .39 6.42
v -2.63 .23 6.9
v -5.74 .12 5.3
v -6.18 .12 4.81
v -4.34 .5 4.55
v -4.02 .5 4.83
v -4.21 .45 4.94
v -4.06 .47 4.96
v -3.78 .49 5.05
v -3.64 .5 5.11
v -3.57 .5 5.14
v -3.33 .51 5.29
v -3.17 .5 5.43
v -3.13 .5 5.46
v -3.03 .48 5.58
v -3 .45 5.76
v -3.01 .44 5.79
v -4.88 .12 6.11
v -3.74 .44 5.34
v -3.77 .44 5.32
v -3.8 .44 5.29
v -4 .43 5.19
v -4.17 .42 5.12
v -4.26 .41 5.1
v -4.36 .39 5.08
v -6.89 .13 3.58
v -7.19 .11 3.14
v -7.41 .13 2.38
v -7.35 .16 2.09
v -7.16 .22 1.95
v -7.04 .25 1.94
v -6.84 .29 1.97
v -6.39 .38 2.15
v -6.22 .41 2.26
v -6.07 .44 2.38
v -6.03 .45 2.42
v -5.8 .48 2.63
v -5.52 .5 2.96
v -5.27 .5 3.38
v -5.17 .45 3.89
v -5.18 .45 3.92
v -5.33 .39 4.1
v -5.6 .32 4.18
v -5.84 .27 4.18
v -6.03 .24 4.15
v -6.13 .22 4.12
v -6.33 .19 4.03
v -6.53 .17 3.92
v -6.58 .16 3.89
v -7.02 .2 2.61
v -7.05 .18 2.72
v -7.02 .17 2.98
v -7 .17 3.02
v -6.97 .17 3.06
v -6.75 .18 3.37
v -6.6 .2 3.5
v -6.45 .23 3.59
v -6.41 .23 3.61
v -6.34 .25 3.64
v -5.83 .35 3.68
v -5.73 .37 3.66
v -5.63 .4 3.62
v -5.56 .43 3.44
v -5.62 .45 3.27
v -5.65 .45 3.2
v -5.67 .45 3.16
v -5.69 .45 3.13
v -6.16 .39 2.7
v -6.31 .36 2.64
v -6.81 .25 2.52
v -6.9 .23 2.53
v -7.73 .12 -1.21
v -7.62 .12 -1.75
v -6.26 .5 -.49
v -6.28 .5 -.19
v -6.28 .5 .12
v -6.24 .51 .41
v -6.27 .5 .57
v -6.35 .47 .66
v -6.42 .46 .69
v -6.23 .49 .97
v -6.12 .51 1.28
v -6.16 .48 1.61
v -6.25 .45 1.66
v -6.28 .45 1.67
v -6.3 .44 1.67
v -6.33 .44 1.67
v -6.45 .41 1.64
v -7.76 .12 1.07
v -6.62 .39 1.15
v -6.44 .44 1.04
v -6.45 .44 1.01
v -6.45 .44 .99
v -6.46 .44 .97
v -6.49 .44 .9
v -6.56 .42 .76
v -6.63 .4 .68
v -6.72 .39 .18
v -6.61 .42 .22
v -6.59 .42 .21
v -6.55 .43 .19
v -6.53 .44 .15
v -6.53 .44 .12
v -6.53 .44 .09
v -6.53 .44 .05
v -6.53 .44 .03
v -6.54 .44 .00
v -6.57 .43 -.15
v -6.6 .42 -.22
v -6.64 .41 -.28
v -6.67 .4 -.31
v -6.9 -.02 -4.71
v -6.47 -.01 -5.26
v -6.63 .04 -4.7
v -6.64 .04 -4.68
v -6.66 .04 -4.66
v -6.72 .04 -4.55
v -6.77 .05 -4.38
v -6.79 .12 -3.83
v -5.48 .5 -3.08
v -5.74 .5 -2.57
v -6.69 .23 -3.07
v -6.71 .23 -3.04
v -7.11 .04 -3.95
v -4.14 .12 -6.63
v -4.1 .12 -6.65
v -4.05 .12 -6.67
v -3.91 .14 -6.69
v -3.85 .15 -6.67
v -3.75 .19 -6.55
v -3.75 .22 -6.4
v -3.82 .27 -6.1
v -3.84 .28 -6.06
v -3.86 .28 -6.02
v -3.88 .29 -5.98
v -3.93 .3 -5.91
v -4.28 .33 -5.5
v -5.01 .34 -4.75
v -4.94 .4 -4.49
v -4.89 .42 -4.44
v -4.87 .42 -4.42
v -4.81 .44 -4.42
v -4.6 .45 -4.59
v -4.57 .45 -4.61
v -4.54 .45 -4.64
v -4.52 .45 -4.66
v -4.35 .44 -4.86
v -4.26 .41 -5.06
v -4.25 .39 -5.18
v -3.83 .4 -5.48
v -3.83 .4 -5.48
v -3.83 .4 -5.48
v -3.83 .4 -5.48
v -3.83 .4 -5.48
v -3.83 .4 -5.48
v -3.83 .4 -5.48
v -3.83 .4 -5.49
v -3.83 .4 -5.49
v -3.83 .4 -5.49
v -3.83 .4 -5.49
v -3.83 .4 -5.49
v -3.83 .4 -5.49
v -3.83 .4 -5.49
v -3.83 .4 -5.49
v -3.83 .4 -5.49
v -3.83 .4 -5.49
v -3.83 .4 -5.48
v -3.83 .4 -5.48
v -3.83 .41 -5.44
v -3.88 .44 -5.23
v -3.89 .45 -5.19
v -3.92 .46 -5.15
v -3.94 .46 -5.1
v -4.19 .5 -4.69
v -4.79 .5 -4.05
v -5.12 .46 -3.92
v -5.18 .45 -3.93
v -5.25 .42 -3.99
v -5.59 .18 -5.07
v -5.59 .18 -5.08
v -5.6 .18 -5.08
v -5.66 .17 -5.07
v -5.68 .17 -5.05
v -5.69 .17 -5.04
v -5.69 .17 -5.04
v -5.7 .17 -5.03
v -5.82 .18 -4.84
v -5.88 .12 -5.1
v -5.46 .11 -5.63
v -5.37 .12 -5.68
v -5.32 .12 -5.7
v -5.3 .13 -5.7
v -5.24 .14 -5.66
v -4.94 .12 -6.02
v -4.9 .12 -6.07
v -4.86 .12 -6.12
v -4.37 .18 -6.17
v -4.45 .17 -6.15
v -4.62 .17 -6.06
v -4.65 .17 -6.04
v -4.68 .17 -6.01
v -4.7 .17 -5.99
v -4.73 .17 -5.96
v -4.78 .17 -5.91
v -5.05 .21 -5.45
v -5.09 .24 -5.25
v -4.97 .3 -5.08
v -4.84 .29 -5.2
v -4.69 .29 -5.34
v -4.54 .29 -5.51
v -4.47 .28 -5.59
v -4.41 .28 -5.68
v -4.39 .27 -5.7
v -4.29 .25 -5.88
v -4.26 .24 -5.97
v -4.26 .21 -6.09
v -4.27 .2 -6.12
v -4.29 .2 -6.15
v -1.68 .12 -7.63
v -1.05 .12 -7.76
v -1.1 .43 -6.46
v -1.21 .5 -6.16
v -2.13 .45 -6.14
v -2.32 .48 -5.92
v -2.38 .49 -5.87
v -2.4 .49 -5.85
v -2.46 .5 -5.81
v -2.95 .5 -5.53
v -3.13 .49 -5.5
v -3.16 .48 -5.51
v -3.19 .48 -5.52
v -3.27 .46 -5.55
v -3.29 .46 -5.57
v -3.32 .44 -5.6
v -3.35 .42 -5.68
v -2.91 .35 -6.22
v -2.84 .42 -5.95
v -2.81 .43 -5.94
v -2.78 .43 -5.94
v -2.73 .44 -5.94
v -2.58 .44 -6
v -2.56 .44 -6.01
v -2.54 .44 -6.02
v -2.52 .44 -6.03
v -2.4 .43 -6.09
v -2.22 .41 -6.28
v -2.17 .39 -6.35
v -2.14 .38 -6.4
v -2.09 .35 -6.54
v 2.64 .12 -7.35
v 3.24 .12 -7.12
v 1.97 .43 -6.25
v 2.52 .43 -6.06
v 1.32 .5 -6.14
v 1.19 .48 -6.24
v 1.12 .49 -6.23
v 1.08 .49 -6.22
v 1.01 .5 -6.22
v .98 .5 -6.22
v .94 .5 -6.22
v .87 .5 -6.22
v .83 .5 -6.22
v .65 .51 -6.22
v .41 .5 -6.26
v .34 .5 -6.28
v .28 .49 -6.32
v .26 .48 -6.33
v .2 .47 -6.4
v .18 .44 -6.5
v .18 .44 -6.53
v .23 .4 -6.68
v .78 .38 -6.72
v .77 .42 -6.55
v .83 .43 -6.5
v .89 .44 -6.48
v .99 .44 -6.45
v 1.03 .44 -6.44
v 1.08 .44 -6.43
v 1.21 .43 -6.43
v 1.39 .42 -6.46
v 1.55 .39 -6.53
v 1.72 .35 -6.65
v 3.58 .18 -6.66
v 5.64 .11 -5.44
v 5.85 .13 -5.08
v 5.88 .15 -4.93
v 5.88 .17 -4.84
v 5.87 .17 -4.81
v 5.85 .19 -4.76
v 5.81 .2 -4.72
v 5.76 .21 -4.68
v 5.71 .23 -4.65
v 5.58 .26 -4.6
v 5.41 .3 -4.57
v 4.56 .44 -4.65
v 4.5 .45 -4.66
v 4.06 .49 -4.84
v 4.01 .49 -4.86
v 3.96 .5 -4.89
v 3.92 .5 -4.92
v 3.33 .5 -5.33
v 3.3 .5 -5.36
v 3.25 .49 -5.41
v 3.14 .47 -5.6
v 3.12 .45 -5.7
v 3.13 .42 -5.8
v 3.24 .37 -5.96
v 3.36 .34 -6.03
v 3.59 .29 -6.15
v 5.03 .29 -5.05
v 5.24 .24 -5.1
v 5.33 .22 -5.16
v 5.34 .21 -5.18
v 5.36 .2 -5.23
v 5.36 .19 -5.28
v 5.33 .18 -5.39
v 5.24 .17 -5.51
v 5.21 .17 -5.54
v 5.18 .17 -5.58
v 5.14 .17 -5.61
v 5.1 .17 -5.64
v 5.06 .17 -5.68
v 5.02 .17 -5.71
v 4.94 .17 -5.76
v 4.86 .18 -5.81
v 4.78 .18 -5.86
v 4.71 .19 -5.89
v 4.63 .19 -5.92
v 4.59 .2 -5.93
v 4.4 .22 -5.94
v 4.22 .26 -5.9
v 3.75 .26 -6.22
v 3.93 .22 -6.27
v 4.09 .19 -6.28
v 4.14 .19 -6.28
v 4.19 .18 -6.28
v 4.23 .18 -6.27
v 4.28 .17 -6.27
v 4.33 .17 -6.26
v 4.74 .13 -6.15
v 3.84 .35 -5.73
v 3.67 .39 -5.63
v 3.65 .4 -5.61
v 3.63 .41 -5.55
v 3.63 .42 -5.5
v 3.81 .45 -5.26
v 3.83 .45 -5.24
v 3.88 .45 -5.21
v 3.9 .45 -5.19
v 3.98 .45 -5.15
v 4.42 .4 -4.98
v 4.62 .37 -4.97
v 7.43 .12 -2.43
v 7.44 .14 -2.17
v 7.37 .17 -1.98
v 7.34 .17 -1.95
v 7.31 .18 -1.92
v 7.25 .2 -1.88
v 7.17 .22 -1.85
v 7.07 .24 -1.84
v 6.52 .36 -2.01
v 6.06 .45 -2.33
v 5.27 .5 -3.41
v 5.21 .48 -3.66
v 5.23 .46 -3.77
v 5.25 .44 -3.84
v 5.28 .43 -3.88
v 5.32 .42 -3.91
v 5.36 .41 -3.94
v 5.46 .38 -3.98
v 5.89 .35 -3.58
v 5.79 .37 -3.57
v 5.71 .39 -3.55
v 5.68 .4 -3.54
v 5.61 .42 -3.45
v 5.6 .43 -3.43
v 5.62 .44 -3.3
v 5.63 .44 -3.28
v 5.66 .45 -3.19
v 5.68 .45 -3.14
v 5.69 .45 -3.12
v 5.71 .45 -3.08
v 5.87 .44 -2.86
v 6.29 .37 -2.58
v 7.06 .2 -2.52
v 7.08 .19 -2.57
v 7.09 .18 -2.69
v 7.03 .17 -2.94
v 7.02 .17 -2.97
v 6.74 .19 -3.34
v 6.2 .23 -3.98
v 6.63 .16 -3.78
v 7.1 .12 -3.27
v 7.63 .12 1.67
v 6.29 .5 .01
v 6.49 .45 .08
v 6.19 .5 -.99
v 6.2 .49 -1.16
v 6.22 .48 -1.24
v 6.3 .46 -1.35
v 6.32 .45 -1.36
v 6.35 .45 -1.38
v 7.77 .12 -.81
v 6.68 .39 -.8
v 6.63 .4 -.8
v 6.6 .41 -.79
v 6.57 .42 -.77
v 6.53 .43 -.72
v 6.5 .44 -.62
v 6.49 .44 -.53
v 6.49 .44 -.5
v 6.5 .44 -.44
v 6.69 .4 .09
v 6.74 .11 4.01
v 6.51 .13 4.24
v 6.44 .14 4.28
v 6.37 .15 4.32
v 6.31 .16 4.34
v 6.17 .19 4.33
v 5.87 .3 3.96
v 5.79 .34 3.75
v 5.71 .45 3.07
v 5.77 .49 2.55
v 5.79 .5 2.49
v 6.06 .5 1.73
v 6.08 .49 1.7
v 6.15 .48 1.59
v 6.2 .47 1.54
v 6.24 .47 1.51
v 6.28 .46 1.48
v 6.33 .45 1.46
v 6.35 .44 1.45
v 6.5 .4 1.46
v 6.72 .34 1.6
v 6.89 .29 1.79
v 6.4 .22 3.72
v 6.49 .2 3.74
v 6.51 .2 3.74
v 6.54 .19 3.73
v 6.7 .17 3.58
v 6.75 .17 3.51
v 6.77 .17 3.47
v 6.79 .17 3.43
v 6.81 .17 3.38
v 6.84 .17 3.33
v 6.86 .17 3.29
v 6.89 .17 3.2
v 6.92 .18 3.11
v 6.94 .18 3.02
v 7.01 .26 1.92
v 7.18 .18 2.33
v 7.19 .18 2.38
v 7.19 .17 2.42
v 7.2 .17 2.47
v 6.56 .35 2.14
v 6.43 .39 2.02
v 6.32 .41 2
v 6.25 .43 2.02
v 6.23 .43 2.04
v 6.2 .44 2.06
v 6.18 .44 2.09
v 6.09 .45 2.24
v 6.08 .45 2.27
v 6.07 .45 2.29
v 6.06 .45 2.32
v 6.05 .45 2.35
v 6.02 .44 2.49
v 4.16 .45 4.97
v 4.38 .5 4.52
v 4.41 .5 4.49
v 4.45 .5 4.43
v 4.77 .5 4.06
v 4.85 .5 4
v 4.91 .49 3.97
v 4.97 .49 3.94
v 4.99 .48 3.93
v 5.1 .47 3.91
v 5.18 .45 3.92
v 5.3 .42 3.98
v 5.51 .16 5.28
v 5.25 .12 5.76
v 4.81 .11 6.21
v 4.64 .11 6.3
v 4.58 .12 6.32
v 4.52 .12 6.34
v 4.47 .13 6.36
v 4.38 .14 6.37
v 4.45 .19 6.06
v 4.51 .18 6.06
v 4.56 .18 6.05
v 4.63 .17 6.03
v 4.75 .17 5.94
v 4.79 .17 5.91
v 4.82 .17 5.88
v 5.11 .2 5.48
v 4.98 .4 4.45
v 4.89 .42 4.42
v 4.85 .43 4.42
v 4.83 .43 4.42
v 4.82 .43 4.43
v 4.8 .44 4.43
v 4.61 .45 4.59
v 4.59 .45 4.6
v 4.28 .4 5.14
v 4.26 .38 5.26
v 4.27 .33 5.49
v 2.11 .11 7.55
v 1.55 .11 7.69
v 1.23 .11 7.73
v 1.1 .12 7.74
v .97 .12 7.73
v .84 .14 7.7
v .73 .15 7.65
v .66 .16 7.59
v .65 .17 7.57
v 1.24 .24 7.23
v 1.4 .18 7.44
v 1.64 .17 7.42
v 1.69 .17 7.42
v 1.75 .17 7.41
v 1.8 .17 7.4
v 1.85 .17 7.38
v 1.9 .17 7.37
v 1.95 .17 7.36
v 2.04 .17 7.33
v 2.29 .18 7.2
v 2.45 .21 7.04
v 2.49 .24 6.88
v 2.45 .25 6.85
v 2.39 .26 6.85
v 2.21 .27 6.86
v 1.91 .28 6.93
v 1.48 .29 6.96
v 1.34 .3 6.95
v 1.28 .3 6.95
v 1.17 .32 6.92
v 1.07 .35 6.81
v 1.07 .35 6.79
v 1.07 .36 6.77
v 1.07 .36 6.76
v 1.29 .45 6.36
v 1.64 .49 6.13
v 1.67 .49 6.11
v 1.91 .5 5.98
v 1.95 .5 5.96
v 1.99 .5 5.94
v 2.34 .51 5.81
v 2.45 .5 5.77
v 2.49 .5 5.76
v 2.52 .5 5.75
v 2.55 .5 5.74
v 2.62 .5 5.72
v 2.68 .49 5.7
v 2.84 .48 5.69
v 3 .45 5.74
v 3.02 .45 5.75
v 2.62 .39 6.21
v 2.58 .43 6.06
v 2.51 .44 6.04
v 2.48 .44 6.04
v 2.45 .44 6.04
v 2.42 .44 6.05
v 2.34 .45 6.06
v 2.19 .45 6.1
v 2.09 .45 6.14
v 1.9 .44 6.23
v 1.61 .4 6.5
v 1.68 .37 6.59
v 1.74 .37 6.6
v 1.84 .36 6.6
v 1.95 .36 6.58
v 2.09 .35 6.55
v 2.22 .35 6.52
v 2.32 .34 6.5
v 2.59 .33 6.45
v 2.79 .32 6.43
v 2.89 .31 6.43
v 2.96 .3 6.45
v 3.03 .26 6.57
v 2.87 .17 7.05
v 2.84 .17 7.08
v 2.6 .14 7.28
v -2.24 -.11 7.42
v -2.42 -.12 7.38
v -2.85 -.12 7.25
v -3.01 -.12 7.17
v -3.15 -.1 7.04
v -3.26 -.07 6.82
v -2.47 .16 6.17
v -2.13 .21 6.08
v -1.86 .24 6.04
v -1.32 .27 6.05
v -1.17 .27 6.08
v -1.05 .27 6.12
v -.94 .27 6.16
v -.83 .25 6.24
v -.74 .23 6.34
v -.23 .42 5.59
v -1.27 -.12 7.66
v -1.65 -.06 7.37
v -1.81 -.08 7.41
v -2.06 -.1 7.44
v -2.6 -.04 7
v -2.46 -.06 7.12
v -2.31 -.06 7.19
v -2.23 -.06 7.21
v -2.09 -.06 7.24
v -1.96 -.05 7.25
v -1.78 -.04 7.22
v -1.64 -.02 7.19
v -1.4 .02 7.06
v -1 .17 6.54
v -1.04 .19 6.43
v -1.24 .21 6.31
v -1.27 .21 6.3
v -1.31 .21 6.3
v -1.5 .21 6.28
v -1.82 .18 6.32
v -1.97 .16 6.36
v -2.61 -.01 6.84
v -5.7 -.12 5.26
v -6.13 -.12 4.77
v -3.98 .27 4.78
v -4.17 .21 4.89
v -4.03 .23 4.92
v -3.61 .27 5.06
v -3.54 .27 5.1
v -3.3 .27 5.25
v -3.14 .27 5.38
v -3.1 .27 5.41
v -2.97 .24 5.59
v -2.97 .21 5.71
v -2.98 .2 5.74
v -4.31 -.12 6.44
v -3.66 .14 5.63
v -3.57 .19 5.49
v -3.6 .2 5.41
v -3.71 .21 5.29
v -3.73 .21 5.27
v -3.76 .21 5.25
v -3.81 .21 5.22
v -3.9 .2 5.17
v -3.97 .2 5.14
v -4.13 .19 5.08
v -4.23 .17 5.05
v -4.32 .16 5.04
v -4.42 .15 5.04
v -6.84 -.1 3.56
v -7.14 -.12 3.12
v -7.35 -.11 2.36
v -7.29 -.07 2.07
v -7.11 -.02 1.93
v -6.98 .02 1.92
v -6.79 .06 1.95
v -6.29 .16 2.16
v -6.13 .19 2.27
v -5.98 .21 2.39
v -5.75 .25 2.61
v -5.47 .27 2.94
v -5.22 .27 3.35
v -5.13 .22 3.86
v -5.14 .21 3.89
v -5.28 .16 4.07
v -5.79 .04 4.15
v -5.98 .01 4.12
v -6.08 -.01 4.09
v -6.28 -.04 4
v -6.48 -.06 3.89
v -6.53 -.07 3.86
v -6.97 -.04 2.59
v -6.96 -.06 2.95
v -6.94 -.06 2.99
v -6.92 -.06 3.04
v -6.69 -.05 3.34
v -6.55 -.03 3.47
v -6.36  3.58
v -6.29 .01 3.61
v -6.21 .03 3.63
v -5.68 .14 3.63
v -5.58 .16 3.59
v -5.51 .2 3.41
v -5.57 .21 3.24
v -5.6 .21 3.17
v -5.79 .2 2.91
v -5.92 .19 2.79
v -5.99 .18 2.74
v -6.11 .16 2.68
v -6.26 .13 2.62
v -6.9 -.01 2.52
v -7.67 -.12 -1.2
v -6.2 .27 .21
v -6.21 .26 .57
v -6.29 .24 .66
v -6.18 .26 .96
v -6.06 .27 1.26
v -6.06 .26 1.52
v -6.2 .22 1.65
v -6.22 .22 1.65
v -6.25 .21 1.65
v -6.27 .2 1.65
v -6.4 .17 1.62
v -6.5 .17 1.16
v -6.43 .19 1.16
v -6.38 .21 1.04
v -6.39 .21 1
v -6.4 .21 .98
v -6.4 .21 .96
v -6.43 .2 .89
v -6.5 .19 .76
v -6.57 .17 .67
v -7.77 -.12 -.07
v -6.6 .17 .21
v -6.53 .19 .21
v -6.47 .21 .12
v -6.47 .21 .09
v -6.47 .21 .05
v -6.47 .21 .03
v -6.48 .21 .00
v -6.51 .19 -.15
v -6.54 .19 -.22
v -6.59 .17 -.28
v -6.61 .17 -.3
v -6.85 -.25 -4.68
v -6.42 -.25 -5.22
v -6.58 -.19 -4.67
v -6.59 -.19 -4.64
v -6.61 -.19 -4.62
v -6.67 -.19 -4.51
v -6.72 -.18 -4.35
v -5.43 .27 -3.05
v -5.68 .27 -2.55
v -6.06 .27 -1.43
v -6.16 .27 -.92
v -7.06 -.2 -3.92
v -4.11 -.12 -6.58
v -4.07 -.11 -6.6
v -4.02 -.11 -6.62
v -3.88 -.1 -6.64
v -3.8 -.08 -6.61
v -3.72 -.05 -6.5
v -3.72 -.01 -6.35
v -3.79 .04 -6.05
v -3.81 .04 -6.01
v -3.83 .05 -5.97
v -3.85 .05 -5.93
v -3.89 .06 -5.86
v -4.25 .1 -5.45
v -4.97 .11 -4.71
v -4.87 .18 -4.42
v -4.85 .18 -4.4
v -4.84 .19 -4.39
v -4.8 .2 -4.38
v -4.7 .21 -4.42
v -4.56 .22 -4.55
v -4.53 .22 -4.57
v -4.5 .22 -4.6
v -4.48 .22 -4.62
v -4.31 .2 -4.82
v -4.22 .18 -5.02
v -4.21 .16 -5.14
v -3.8 .16 -5.44
v -3.8 .17 -5.43
v -3.8 .17 -5.43
v -3.8 .17 -5.43
v -3.8 .16 -5.43
v -3.8 .16 -5.44
v -3.8 .16 -5.44
v -3.8 .16 -5.44
v -3.8 .16 -5.44
v -3.8 .16 -5.44
v -3.8 .16 -5.44
v -3.8 .16 -5.44
v -3.8 .16 -5.44
v -3.8 .16 -5.44
v -3.8 .16 -5.44
v -3.8 .16 -5.44
v -3.8 .16 -5.44
v -3.8 .16 -5.44
v -3.8 .17 -5.4
v -3.84 .21 -5.19
v -3.86 .22 -5.14
v -3.88 .22 -5.1
v -3.91 .23 -5.06
v -4.15 .26 -4.64
v -4.75 .27 -4.02
v -4.98 .24 -3.89
v -5.11 .22 -3.88
v -5.13 .21 -3.89
v -5.54 -.05 -5.03
v -5.55 -.05 -5.04
v -5.56 -.06 -5.05
v -5.58 -.06 -5.05
v -5.59 -.06 -5.04
v -5.62 -.06 -5.03
v -5.63 -.06 -5.02
v -5.64 -.06 -5.01
v -5.64 -.06 -5.01
v -5.65 -.06 -5
v -5.66 -.06 -4.99
v -5.78 -.06 -4.8
v -5.42 -.12 -5.59
v -5.33 -.12 -5.64
v -5.28 -.11 -5.65
v -5.26 -.11 -5.65
v -5.24 -.1 -5.65
v -5.22 -.1 -5.64
v -5.21 -.1 -5.63
v -5.15 -.06 -5.52
v -4.9 -.11 -5.97
v -4.87 -.11 -6.03
v -4.82 -.12 -6.08
v -4.33 -.05 -6.12
v -4.41 -.06 -6.1
v -4.58 -.06 -6.01
v -4.64 -.06 -5.97
v -4.67 -.06 -5.94
v -4.69 -.06 -5.92
v -4.74 -.06 -5.87
v -5.01 -.02 -5.41
v -5.05 .01 -5.2
v -4.93 .06 -5.04
v -4.8 .06 -5.16
v -4.65 .06 -5.3
v -4.5 .05 -5.46
v -4.37 .04 -5.63
v -4.36 .04 -5.66
v -4.25 .02 -5.83
v -4.23 .00 -5.92
v -4.23 -.02 -6.04
v -4.24 -.03 -6.07
v -4.25 -.04 -6.1
v -4.27 -.04 -6.11
v -4.29 -.05 -6.12
v -1.67 -.12 -7.57
v -1.05 -.12 -7.7
v -1.09 .2 -6.4
v -2.11 .21 -6.08
v -2.3 .25 -5.86
v -2.35 .25 -5.82
v -2.38 .26 -5.8
v -2.44 .26 -5.76
v -3.1 .26 -5.45
v -3.13 .25 -5.46
v -3.16 .25 -5.47
v -3.26 .22 -5.52
v -3.29 .21 -5.55
v -3.32 .19 -5.63
v -3.31 .12 -5.95
v -2.87 .17 -5.95
v -2.85 .18 -5.92
v -2.81 .19 -5.9
v -2.78 .19 -5.89
v -2.73 .2 -5.89
v -2.67 .2 -5.9
v -2.6 .21 -5.93
v -2.58 .21 -5.93
v -2.56 .21 -5.94
v -2.54 .21 -5.96
v -2.52 .21 -5.97
v -2.5 .21 -5.98
v -2.38 .2 -6.04
v -2.2 .17 -6.22
v -2.15 .16 -6.29
v -2.12 .15 -6.34
v -2.07 .12 -6.48
v -.51 -.05 -7.47
v -2.92 -.05 -6.92
v 3.21 -.12 -7.07
v 1.31 .27 -6.08
v 1.11 .25 -6.17
v 1.07 .26 -6.17
v 1 .26 -6.16
v .97 .26 -6.16
v .93 .27 -6.16
v .86 .27 -6.16
v .82 .27 -6.16
v .45 .27 -6.19
v .41 .27 -6.2
v .37 .27 -6.21
v .34 .26 -6.22
v .31 .26 -6.24
v .28 .26 -6.26
v .26 .25 -6.28
v .2 .24 -6.34
v .17 .21 -6.44
v .17 .2 -6.47
v .23 .17 -6.62
v .85 .12 -6.76
v .77 .15 -6.66
v .74 .17 -6.57
v .74 .18 -6.53
v .79 .2 -6.46
v .83 .2 -6.44
v .89 .2 -6.42
v .98 .21 -6.39
v 1.03 .21 -6.38
v 1.07 .21 -6.38
v 1.2 .2 -6.37
v 1.38 .18 -6.41
v 1.53 .16 -6.47
v 1.71 .12 -6.59
v 3.85 -.12 -6.75
v 5.6 -.12 -5.4
v 5.81 -.1 -5.04
v 5.84 -.08 -4.89
v 5.83 -.07 -4.8
v 5.72 -.02 -4.65
v 5.67 .00 -4.61
v 5.53 .03 -4.57
v 5.36 .07 -4.54
v 5.14 .11 -4.51
v 4.51 .21 -4.61
v 4.46 .22 -4.62
v 4.02 .26 -4.79
v 3.97 .26 -4.82
v 3.93 .26 -4.85
v 3.88 .27 -4.87
v 3.3 .27 -5.28
v 3.27 .26 -5.31
v 3.22 .26 -5.37
v 3.11 .23 -5.55
v 3.09 .21 -5.65
v 3.13 .18 -5.79
v 3.22 .14 -5.9
v 3.33 .11 -5.98
v 3.56 .06 -6.1
v 4.98 .06 -5
v 5.2 .01 -5.06
v 5.28 -.02 -5.12
v 5.3 -.02 -5.14
v 5.32 -.04 -5.24
v 5.28 -.06 -5.35
v 5.2 -.06 -5.47
v 5.17 -.06 -5.5
v 5.14 -.06 -5.53
v 5.1 -.06 -5.56
v 5.06 -.06 -5.6
v 5.02 -.06 -5.63
v 4.98 -.06 -5.66
v 4.9 -.06 -5.72
v 4.82 -.06 -5.77
v 4.75 -.05 -5.81
v 4.67 -.05 -5.85
v 4.59 -.04 -5.88
v 4.56 -.04 -5.89
v 4.37 -.01 -5.89
v 3.9 -.01 -6.22
v 4.06 -.04 -6.23
v 4.15 -.05 -6.23
v 4.2 -.06 -6.23
v 4.25 -.06 -6.22
v 4.71 -.1 -6.1
v 4.72 .11 -4.95
v 3.7 .14 -5.63
v 3.65 .15 -5.59
v 3.63 .16 -5.57
v 3.6 .18 -5.51
v 3.6 .19 -5.45
v 3.65 .21 -5.33
v 3.79 .21 -5.19
v 3.84 .21 -5.16
v 3.87 .21 -5.15
v 3.95 .21 -5.11
v 4.17 .2 -4.99
v 4.38 .17 -4.94
v 4.58 .14 -4.93
v 7.37 -.12 -2.41
v 7.38 -.1 -2.15
v 7.35 -.08 -2.03
v 7.31 -.07 -1.97
v 7.28 -.06 -1.93
v 7.25 -.05 -1.9
v 7.2 -.03 -1.86
v 7.11 -.01 -1.84
v 6.46 .13 -2
v 6.01 .21 -2.31
v 5.54 .27 -2.81
v 5.22 .27 -3.38
v 5.17 .24 -3.63
v 5.18 .23 -3.73
v 5.21 .21 -3.8
v 5.23 .2 -3.84
v 5.27 .19 -3.88
v 5.31 .17 -3.91
v 5.42 .15 -3.95
v 5.55 .12 -3.97
v 5.84 .12 -3.55
v 5.66 .16 -3.52
v 5.57 .19 -3.45
v 5.56 .19 -3.42
v 5.55 .2 -3.4
v 5.57 .21 -3.27
v 5.58 .21 -3.25
v 5.61 .21 -3.16
v 5.63 .21 -3.11
v 5.64 .21 -3.09
v 5.66 .21 -3.06
v 6.24 .14 -2.56
v 6.83 .01 -2.42
v 6.93 -.02 -2.44
v 6.99 -.03 -2.48
v 7.02 -.05 -2.55
v 7.03 -.06 -2.67
v 6.98 -.06 -2.92
v 6.97 -.06 -2.95
v 5.95 .03 -3.97
v 6.58 -.07 -3.76
v 7.04 -.12 -3.25
v 7.58 -.12 1.66
v 6.2 .27 .43
v 6.24 .27 .01
v 6.44 .21 .08
v 6.14 .27 -.98
v 6.15 .26 -1.15
v 6.17 .25 -1.22
v 6.26 .22 -1.35
v 6.29 .21 -1.37
v 6.51 .16 -1.38
v 7.72 -.12 -.8
v 7.76 -.12 -.15
v 6.62 .16 -.79
v 6.58 .17 -.79
v 6.54 .18 -.78
v 6.52 .18 -.77
v 6.47 .2 -.71
v 6.44 .2 -.62
v 6.43 .21 -.53
v 6.43 .21 -.49
v 6.44 .21 -.46
v 6.44 .21 -.43
v 6.65 .16 .1
v 6.69 -.12 3.98
v 6.46 -.1 4.2
v 6.39 -.1 4.25
v 6.29 -.08 4.3
v 6.12 -.05 4.3
v 5.82 .07 3.93
v 5.74 .11 3.72
v 5.66 .21 3.09
v 5.66 .22 3.04
v 5.72 .26 2.52
v 5.74 .26 2.47
v 6 .26 1.72
v 6.02 .26 1.68
v 6.1 .25 1.57
v 6.14 .24 1.53
v 6.18 .23 1.49
v 6.23 .22 1.47
v 6.27 .21 1.45
v 6.45 .17 1.45
v 6.66 .11 1.59
v 6.83 .06 1.78
v 6.16 .06 3.44
v 6.35 -.01 3.69
v 6.44 -.03 3.71
v 6.46 -.04 3.71
v 6.51 -.05 3.69
v 6.65 -.06 3.55
v 6.72 -.06 3.44
v 6.74 -.06 3.4
v 6.76 -.06 3.35
v 6.78 -.06 3.31
v 6.8 -.06 3.26
v 6.84 -.06 3.17
v 6.87 -.06 3.08
v 6.89 -.05 3
v 6.9 -.05 2.91
v 6.77 .02 2.44
v 6.95 .02 1.91
v 7.12 -.05 2.31
v 7.13 -.06 2.36
v 7.14 -.06 2.4
v 7.14 -.07 2.45
v 6.26 .18 1.98
v 6.24 .19 1.99
v 6.2 .19 2.01
v 6.17 .2 2.02
v 6.15 .2 2.05
v 6.12 .21 2.07
v 6.03 .21 2.22
v 6.03 .21 2.25
v 6.02 .21 2.27
v 6.01 .21 2.3
v 6 .21 2.33
v 5.97 .21 2.47
v 4.17 -.25 7.19
v 3.72 .27 4.99
v 4.13 .21 4.93
v 4.34 .26 4.48
v 4.37 .27 4.45
v 4.41 .27 4.39
v 4.72 .27 4.02
v 4.78 .27 3.98
v 4.81 .26 3.96
v 4.86 .26 3.93
v 4.92 .25 3.91
v 4.95 .25 3.9
v 4.98 .25 3.89
v 5 .24 3.88
v 5.13 .22 3.88
v 5.47 -.07 5.24
v 5.21 -.11 5.72
v 4.55 -.11 6.28
v 4.49 -.11 6.3
v 4.39 -.1 6.32
v 4.35 -.1 6.32
v 4.31 -.09 6.32
v 4.42 -.04 6.01
v 4.47 -.05 6.01
v 4.5 -.05 6.01
v 4.56 -.06 5.99
v 4.72 -.06 5.9
v 4.75 -.06 5.87
v 4.78 -.06 5.84
v 5.07 -.04 5.44
v 4.93 .17 4.41
v 4.85 .19 4.38
v 4.82 .19 4.38
v 4.8 .2 4.38
v 4.79 .2 4.38
v 4.77 .2 4.39
v 4.69 .21 4.43
v 4.57 .21 4.55
v 4.55 .21 4.56
v 4.25 .16 5.1
v 4.23 .14 5.22
v 4.23 .1 5.44
v 4.31 -.02 5.96
v 2.1 -.12 7.49
v 1.54 -.12 7.63
v 1.22 -.12 7.68
v 1.09 -.11 7.69
v 1.05 -.11 7.69
v .97 -.11 7.67
v .83 -.1 7.64
v .73 -.08 7.59
v .66 -.07 7.53
v .65 -.06 7.52
v 1.23 .00 7.17
v 1.39 -.06 7.38
v 1.54 -.06 7.38
v 1.63 -.06 7.37
v 1.68 -.06 7.36
v 1.73 -.06 7.35
v 1.79 -.06 7.34
v 1.84 -.06 7.33
v 1.89 -.06 7.32
v 1.94 -.06 7.3
v 2.27 -.05 7.14
v 2.44 -.03 6.98
v 2.47 .01 6.83
v 2.4 .02 6.79
v 2.37 .02 6.79
v 2.3 .03 6.79
v 1.47 .06 6.9
v 1.27 .07 6.89
v 1.16 .08 6.86
v 1.06 .11 6.77
v 1.06 .12 6.75
v 1.06 .12 6.73
v 1.06 .12 6.72
v 1.06 .13 6.7
v 1.28 .21 6.3
v 1.62 .25 6.07
v 1.66 .26 6.05
v 1.89 .27 5.92
v 1.93 .27 5.9
v 1.97 .27 5.88
v 2.32 .27 5.75
v 2.43 .27 5.72
v 2.46 .27 5.71
v 2.5 .27 5.69
v 2.53 .27 5.68
v 2.59 .27 5.67
v 2.66 .26 5.65
v 2.74 .25 5.64
v 2.82 .25 5.64
v 2.91 .23 5.65
v 2.98 .22 5.68
v 2.99 .21 5.7
v 3.03 .16 5.94
v 2.6 .16 6.15
v 2.59 .18 6.04
v 2.52 .2 5.99
v 2.49 .2 5.99
v 2.17 .22 6.05
v 2.07 .22 6.08
v 1.88 .21 6.17
v 1.67 .19 6.33
v 1.6 .16 6.45
v 1.61 .15 6.51
v 1.83 .13 6.54
v 1.94 .12 6.52
v 2.08 .12 6.49
v 2.2 .11 6.47
v 2.3 .11 6.44
v 2.57 .1 6.4
v 2.77 .09 6.38
v 3.01 .03 6.51
v 2.85 -.06 6.99
v 2.82 -.07 7.02
v 2.58 -.09 7.22
v 2.04 -.12 7.51
v 2.06 .11 7.57
v 1.38 -.12 7.66
v 1.39 .11 7.72
v 1.18 -.12 7.68
v 1.19 .11 7.74
v 1.05 .12 7.74
v .89 -.1 7.66
v .9 .13 7.72
v .77 -.09 7.62
v .78 .14 7.68
v .67 -.07 7.55
v .68 .16 7.61
v .64 -.06 7.5
v .65 .17 7.56
v .64 -.03 7.38
v .65 .2 7.43
v .72 .00 7.24
v .73 .24 7.3
v 1.2 -.02 7.26
v 1.21 .22 7.32
v 1.22 -.03 7.32
v 1.23 .2 7.38
v 1.24 -.04 7.35
v 1.25 .19 7.4
v 1.28 -.05 7.36
v 1.29 .19 7.42
v 1.33 -.05 7.38
v 1.34 .18 7.43
v 1.46 -.06 7.38
v 1.47 .17 7.44
v 1.55 .17 7.43
v 1.98 -.06 7.29
v 2 .17 7.35
v 2.03 -.06 7.28
v 2.32 -.05 7.1
v 2.34 .19 7.16
v 2.46 -.02 6.94
v 2.48 .21 7
v 2.48 .00 6.86
v 2.5 .23 6.92
v 2.46 .01 6.82
v 2.48 .24 6.87
v 2.45 .01 6.81
v 2.46 .25 6.86
v 2.43 .02 6.8
v 2.42 .25 6.85
v 2.34 .03 6.79
v 2.36 .26 6.85
v 2.31 .26 6.85
v 2.19 .03 6.81
v 1.89 .04 6.87
v 1.33 .07 6.89
v 1.22 .08 6.88
v 1.23 .31 6.94
v 1.14 .09 6.85
v 1.15 .32 6.91
v 1.1 .1 6.82
v 1.11 .33 6.88
v 1.07 .34 6.82
v 1.08 .15 6.61
v 1.09 .38 6.67
v 1.19 .19 6.4
v 1.2 .43 6.46
v 1.45 .24 6.17
v 1.47 .47 6.22
v 2.01 .27 5.86
v 2.03 .5 5.92
v 2.19 .27 5.79
v 2.21 .51 5.85
v 2.56 .27 5.67
v 2.59 .5 5.73
v 2.63 .26 5.66
v 2.65 .5 5.71
v 2.69 .26 5.65
v 2.71 .49 5.7
v 2.77 .49 5.69
v 2.79 .25 5.64
v 2.82 .48 5.69
v 2.86 .24 5.64
v 2.89 .47 5.69
v 2.93 .47 5.7
v 2.96 .22 5.67
v 2.99 .45 5.73
v 3.01 .2 5.72
v 3.04 .44 5.77
v 3.04 .19 5.8
v 3.07 .42 5.85
v 3.05 .39 5.99
v 2.61 .42 6.09
v 2.58 .19 6.02
v 2.6 .42 6.07
v 2.56 .19 6.01
v 2.54 .43 6.05
v 2.46 .21 5.99
v 2.43 .21 5.99
v 2.4 .21 5.99
v 2.32 .21 6.01
v 2.24 .21 6.03
v 2.26 .45 6.08
v 2 .21 6.11
v 2.02 .45 6.17
v 1.83 .21 6.2
v 1.84 .44 6.26
v 1.68 .42 6.39
v 1.6 .15 6.48
v 1.61 .39 6.54
v 1.63 .38 6.56
v 1.62 .14 6.52
v 1.64 .38 6.57
v 1.64 .14 6.52
v 1.65 .37 6.58
v 1.66 .14 6.53
v 1.72 .13 6.54
v 1.8 .13 6.54
v 1.82 .36 6.6
v 2.45 .11 6.42
v 2.47 .34 6.47
v 2.61 .1 6.39
v 2.63 .33 6.45
v 2.82 .08 6.38
v 2.85 .31 6.43
v 2.87 .08 6.38
v 2.91 .07 6.39
v 2.93 .3 6.44
v 2.94 .06 6.4
v 2.98 .05 6.45
v 3.01 .28 6.5
v 3.01 .01 6.61
v 3.04 .24 6.66
v 2.92 -.05 6.9
v 2.94 .19 6.96
v 2.5 -.1 7.28
v 2.52 .13 7.33
v 4.19 -.02 7.24
v 3.55 -.25 7.51
v 3.57 -.02 7.56
v 3.76 .5 5.04
v 4.05 .27 4.72
v 4.08 .5 4.77
v 4.61 .27 4.13
v 4.65 .51 4.17
v 4.82 .5 4.02
v 4.83 .26 3.95
v 4.88 .5 3.98
v 4.89 .26 3.92
v 4.94 .49 3.95
v 5.02 .48 3.92
v 5.05 .47 3.92
v 5.06 .23 3.88
v 5.1 .22 3.88
v 5.15 .45 3.91
v 5.15 .21 3.89
v 5.2 .44 3.92
v 5.25 .18 3.94
v 5.34 .15 4.04
v 5.39 .38 4.07
v 5.54 .02 4.61
v 5.59 .25 4.65
v 5.41 -.08 5.4
v 5.45 .15 5.44
v 4.91 -.12 6.04
v 4.95 .11 6.09
v 4.77 -.12 6.16
v 4.61 -.12 6.25
v 4.44 -.11 6.31
v 4.42 .13 6.37
v 4.34 .14 6.37
v 4.27 -.08 6.32
v 4.3 .15 6.37
v 4.24 -.08 6.31
v 4.27 .15 6.36
v 4.39 -.04 6.01
v 4.43 .2 6.05
v 4.53 .18 6.05
v 4.53 -.05 6
v 4.59 .18 6.04
v 4.59 -.06 5.98
v 4.62 -.06 5.97
v 4.66 .17 6.01
v 4.69 -.06 5.92
v 4.72 .17 5.97
v 4.88 -.06 5.74
v 4.92 .17 5.78
v 5.15 .01 5.15
v 5.19 .24 5.19
v 5.02 .13 4.52
v 5.06 .37 4.56
v 4.95 .16 4.42
v 4.99 .4 4.46
v 4.89 .18 4.39
v 4.94 .41 4.43
v 4.86 .19 4.38
v 4.91 .42 4.42
v 4.83 .19 4.38
v 4.88 .42 4.42
v 4.86 .43 4.42
v 4.76 .2 4.39
v 4.73 .21 4.41
v 4.77 .44 4.45
v 4.74 .44 4.47
v 4.63 .21 4.48
v 4.67 .45 4.52
v 4.44 .21 4.69
v 4.48 .44 4.73
v 4.23 .15 5.18
v 4.27 .38 5.23
v 4.26 .01 5.85
v 4.3 .25 5.9
v 4.34 .22 6
v 4.35 -.03 5.99
v 4.38 .21 6.04
v 4.37 -.03 6
v 4.4 .2 6.05
v 7.13 -.11 2.99
v 7.18 .13 3.01
v 6.73 -.12 3.93
v 6.78 .11 3.96
v 6.5 -.11 4.18
v 6.54 .13 4.21
v 6.42 -.1 4.23
v 6.47 .13 4.26
v 6.36 -.09 4.27
v 6.41 .14 4.3
v 6.32 -.09 4.28
v 6.34 .15 4.33
v 6.26 -.08 4.3
v 6.23 -.07 4.31
v 6.28 .16 4.34
v 6.2 -.07 4.31
v 6.25 .17 4.35
v 6.17 -.06 4.31
v 6.22 .17 4.34
v 6.15 -.05 4.31
v 6.19 .18 4.34
v 6.09 -.04 4.29
v 6.14 .19 4.32
v 6.04 -.03 4.26
v 6.09 .21 4.3
v 5.95 .00 4.18
v 6 .24 4.21
v 5.71 .44 3.12
v 5.86 .27 2
v 5.92 .51 2.02
v 6.12 .25 1.55
v 6.17 .48 1.56
v 6.16 .24 1.51
v 6.22 .47 1.52
v 6.2 .23 1.48
v 6.26 .46 1.49
v 6.25 .22 1.46
v 6.31 .45 1.47
v 6.3 .21 1.44
v 6.35 .2 1.43
v 6.4 .43 1.45
v 6.37 .19 1.43
v 6.43 .42 1.45
v 6.42 .18 1.44
v 6.48 .41 1.45
v 6.47 .16 1.46
v 6.53 .4 1.47
v 6.58 .13 1.52
v 6.63 .37 1.53
v 6.21 .29 3.47
v 6.32 .00 3.68
v 6.37 .23 3.71
v 6.37 -.02 3.7
v 6.42 .22 3.73
v 6.39 -.02 3.71
v 6.44 .21 3.74
v 6.41 -.03 3.71
v 6.46 .21 3.74
v 6.49 -.04 3.7
v 6.56 .19 3.72
v 6.53 -.05 3.67
v 6.58 .18 3.7
v 6.56 -.05 3.66
v 6.61 .18 3.68
v 6.6 -.06 3.61
v 6.65 .18 3.64
v 6.69 -.06 3.48
v 6.96 .19 2.94
v 6.82 .26 2.46
v 7.09 -.03 2.18
v 7.15 .2 2.2
v 6.04 .11 3.21
v 6.09 .35 3.23
v 6.5 .11 2.12
v 6.37 .15 2
v 6.35 .16 1.99
v 6.4 .39 2.01
v 6.32 .17 1.98
v 6.37 .4 2
v 6.29 .17 1.98
v 6.35 .41 2
v 6.29 .42 2
v 6.21 .19 2
v 6.27 .42 2.02
v 6.18 .2 2.01
v 6.24 .43 2.03
v 6.16 .2 2.03
v 6.21 .43 2.05
v 6.11 .21 2.09
v 6.16 .44 2.11
v 6.06 .21 2.16
v 6.12 .45 2.18
v 5.94 .19 2.72
v 5.99 .42 2.75
v 7.7 -.12 1.03
v 7.76 .12 1.03
v 6.26 .5 .43
v 6.25 .26 -.28
v 6.31 .49 -.28
v 6.14 .27 -1.07
v 6.19 .5 -1.08
v 6.2 .24 -1.29
v 6.25 .47 -1.3
v 6.22 .23 -1.31
v 6.27 .47 -1.32
v 6.24 .23 -1.33
v 6.32 .2 -1.38
v 6.38 .44 -1.39
v 6.35 .2 -1.39
v 6.41 .43 -1.4
v 6.42 .18 -1.39
v 6.48 .41 -1.4
v 6.56 .39 -1.39
v 7.82 .12 -.15
v 6.73 .13 -.77
v 6.79 .36 -.77
v 6.67 .14 -.79
v 6.73 .38 -.79
v 6.6 .16 -.79
v 6.66 .4 -.8
v 6.56 .17 -.79
v 6.62 .41 -.8
v 6.58 .41 -.78
v 6.51 .19 -.76
v 6.49 .19 -.75
v 6.55 .42 -.75
v 6.48 .19 -.73
v 6.54 .43 -.74
v 6.46 .2 -.69
v 6.52 .43 -.7
v 6.45 .2 -.65
v 6.5 .44 -.65
v 6.49 .44 -.46
v 6.69 .15 .16
v 6.75 .38 .16
v 7.39 -.11 -2.27
v 7.44 .12 -2.29
v 7.37 -.09 -2.1
v 7.43 .14 -2.12
v 7.41 .15 -2.05
v 7.3 -.06 -1.95
v 7.36 .17 -1.96
v 7.22 -.04 -1.88
v 7.27 .19 -1.89
v 7.18 -.03 -1.86
v 7.23 .2 -1.87
v 7.09 -.01 -1.83
v 7.15 .23 -1.85
v 7.02 .01 -1.83
v 6.91 .04 -1.84
v 6.97 .27 -1.86
v 6.56 .11 -1.95
v 6.62 .35 -1.97
v 6.3 .16 -2.09
v 6.36 .4 -2.1
v 5.52 .27 -2.84
v 5.57 .5 -2.87
v 5.2 .26 -3.44
v 5.24 .5 -3.48
v 5.17 .24 -3.68
v 5.22 .47 -3.72
v 5.2 .22 -3.78
v 5.24 .45 -3.81
v 5.22 .21 -3.82
v 5.27 .44 -3.86
v 5.25 .19 -3.86
v 5.3 .43 -3.89
v 5.29 .18 -3.89
v 5.34 .41 -3.93
v 5.34 .17 -3.92
v 5.38 .4 -3.95
v 5.39 .15 -3.94
v 5.43 .39 -3.98
v 5.48 .13 -3.96
v 5.53 .36 -4
v 5.6 .35 -4
v 5.74 .14 -3.54
v 5.63 .17 -3.51
v 5.6 .17 -3.49
v 5.65 .41 -3.52
v 5.58 .18 -3.47
v 5.63 .41 -3.5
v 5.62 .42 -3.48
v 5.55 .2 -3.34
v 5.6 .44 -3.37
v 5.82 .2 -2.84
v 6.09 .17 -2.63
v 6.14 .4 -2.66
v 6.32 .12 -2.53
v 6.37 .36 -2.55
v 6.76 .03 -2.42
v 6.81 .26 -2.44
v 6.88 .24 -2.44
v 6.88 .00 -2.42
v 6.94 .23 -2.44
v 6.99 .22 -2.46
v 6.95 -.02 -2.45
v 7.01 .21 -2.47
v 6.97 -.03 -2.46
v 7.03 .21 -2.48
v 7.04 .2 -2.5
v 7 -.04 -2.5
v 7.03 -.05 -2.61
v 7.09 .18 -2.63
v 6.69 -.04 -3.32
v 6.51 -.02 -3.44
v 6.56 .21 -3.47
v 6.42 .00 -3.49
v 6.47 .23 -3.52
v 6.31 .02 -3.52
v 6.36 .25 -3.55
v 6.23 .03 -3.53
v 6.28 .27 -3.56
v 6 .27 -4
v 6.15 -.01 -3.95
v 6.32 -.03 -3.89
v 6.37 .2 -3.92
v 6.5 -.06 -3.81
v 6.55 .18 -3.84
v 6.62 -.07 -3.73
v 6.67 .16 -3.75
v 7.17 -.12 -3.06
v 7.22 .11 -3.08
v 5.52 -.12 -5.51
v 5.56 .11 -5.55
v 5.78 -.11 -5.12
v 5.82 .13 -5.16
v 5.83 -.09 -4.96
v 5.88 .14 -5
v 5.84 -.07 -4.83
v 5.88 .16 -4.87
v 5.83 -.06 -4.78
v 5.8 -.05 -4.73
v 5.77 -.03 -4.68
v 5.69 -.01 -4.63
v 5.74 .22 -4.67
v 5.63 .00 -4.6
v 5.68 .24 -4.64
v 5.49 .04 -4.56
v 5.54 .27 -4.59
v 5.18 .34 -4.55
v 4.95 .15 -4.52
v 4.99 .38 -4.56
v 4.36 .23 -4.65
v 4.4 .46 -4.69
v 4.07 .25 -4.77
v 4.11 .49 -4.81
v 3.43 .27 -5.16
v 3.46 .51 -5.21
v 3.25 .26 -5.34
v 3.28 .49 -5.39
v 3.12 .24 -5.53
v 3.15 .47 -5.58
v 3.09 .22 -5.63
v 3.12 .45 -5.68
v 3.1 .2 -5.72
v 3.13 .43 -5.77
v 3.14 .17 -5.82
v 3.17 .4 -5.87
v 3.24 .13 -5.92
v 3.27 .37 -5.98
v 5.13 .03 -5.03
v 5.17 .26 -5.07
v 5.25 .00 -5.09
v 5.29 .23 -5.13
v 5.31 -.03 -5.19
v 5.3 -.05 -5.33
v 5.34 .18 -5.37
v 5.22 -.06 -5.44
v 5.26 .17 -5.48
v 4.94 -.06 -5.69
v 4.98 .17 -5.74
v 4.63 -.04 -5.86
v 4.67 .19 -5.91
v 4.52 -.03 -5.89
v 4.55 .2 -5.94
v 4.4 -.02 -5.9
v 4.44 .22 -5.94
v 4.33 .00 -5.89
v 4.36 .23 -5.94
v 4.19 .02 -5.85
v 3.72 .02 -6.17
v 3.86 -.01 -6.22
v 3.89 .23 -6.26
v 3.94 -.02 -6.23
v 3.97 .21 -6.28
v 4.11 -.04 -6.23
v 4.3 -.07 -6.21
v 4.76 .35 -4.99
v 3.8 .11 -5.68
v 3.73 .37 -5.68
v 3.64 .16 -5.58
v 3.61 .17 -5.53
v 3.64 .4 -5.58
v 3.6 .18 -5.48
v 3.63 .42 -5.53
v 3.61 .19 -5.42
v 3.64 .43 -5.47
v 3.68 .44 -5.38
v 3.77 .21 -5.21
v 4.21 .43 -5.04
v 2.62 -.12 -7.3
v 1.95 .2 -6.19
v 2.49 .2 -6
v 2.24 .27 -5.81
v 2.26 .5 -5.86
v 1.46 .21 -6.27
v 1.47 .45 -6.33
v 1.18 .25 -6.18
v 1.04 .26 -6.16
v 1.05 .49 -6.22
v .64 .27 -6.16
v .45 .5 -6.24
v .38 .5 -6.27
v .31 .49 -6.3
v .23 .25 -6.3
v .24 .48 -6.35
v .18 .22 -6.39
v .18 .46 -6.45
v .18 .2 -6.5
v .18 .43 -6.56
v .37 .12 -6.79
v .37 .35 -6.85
v .85 .35 -6.82
v .75 .4 -6.63
v .75 .41 -6.59
v .76 .19 -6.5
v .8 .43 -6.52
v .84 .2 -6.44
v .85 .43 -6.5
v 1.05 .21 -6.38
v 1.06 .44 -6.44
v 1.14 .2 -6.37
v 1.15 .44 -6.43
v 1.23 .2 -6.38
v 1.24 .43 -6.43
v 1.31 .19 -6.39
v 1.33 .42 -6.45
v 1.48 .17 -6.44
v 1.49 .4 -6.5
v 1.55 .16 -6.48
v 1.57 .39 -6.54
v 1.45 -.12 -7.62
v 1.46 .12 -7.68
v 3.88 .12 -6.8
v 3.55 -.05 -6.6
v 1.21 -.05 -7.4
v 1.22 .18 -7.46
v -1.65 .2 -6.29
v -1.67 .43 -6.34
v -1.2 .27 -6.1
v -2.13 .27 -5.84
v -2.15 .5 -5.9
v -2.28 .25 -5.89
v -2.3 .48 -5.94
v -2.68 .27 -5.59
v -2.7 .51 -5.64
v -2.92 .27 -5.48
v -3 .27 -5.46
v -3.03 .5 -5.51
v -3.07 .26 -5.45
v -3.1 .49 -5.5
v -3.19 .24 -5.48
v -3.22 .47 -5.53
v -3.24 .23 -5.5
v -3.27 .22 -5.53
v -3.3 .45 -5.58
v -3.3 .2 -5.58
v -3.33 .44 -5.63
v -3.37 .41 -5.75
v -3.34 .35 -6
v -2.88 .12 -6.17
v -2.89 .16 -5.99
v -2.91 .39 -6.05
v -2.9 .4 -6.01
v -2.87 .41 -5.97
v -2.79 .19 -5.89
v -2.82 .43 -5.94
v -2.76 .2 -5.89
v -2.76 .43 -5.94
v -2.7 .2 -5.89
v -2.64 .21 -5.91
v -2.66 .44 -5.96
v -2.44 .2 -6.01
v -2.46 .44 -6.06
v -2.21 .18 -6.2
v -2.23 .41 -6.26
v -2.84 -.12 -7.23
v -2.86 .12 -7.28
v -.34 -.12 -7.75
v -.34 .12 -7.81
v -.52 .18 -7.53
v -2.94 .18 -6.97
v -4.76 -.12 -6.15
v -4.79 .11 -6.2
v -3.95 -.1 -6.64
v -3.98 .13 -6.69
v -3.85 -.09 -6.63
v -3.88 .14 -6.68
v -3.82 -.09 -6.62
v -3.83 .15 -6.66
v -3.76 -.07 -6.58
v -3.79 .16 -6.63
v -3.73 -.05 -6.53
v -3.76 .18 -6.58
v -3.72 -.04 -6.47
v -3.75 .19 -6.52
v -3.74 .01 -6.2
v -3.77 .25 -6.25
v -3.87 .06 -5.9
v -3.9 .29 -5.94
v -4.89 .17 -4.46
v -4.92 .41 -4.46
v -4.88 .42 -4.43
v -4.83 .19 -4.39
v -4.81 .19 -4.38
v -4.86 .43 -4.42
v -4.84 .43 -4.42
v -4.78 .2 -4.38
v -4.83 .43 -4.42
v -4.77 .2 -4.38
v -4.73 .21 -4.4
v -4.78 .44 -4.44
v -4.74 .44 -4.46
v -4.36 .21 -4.75
v -4.4 .44 -4.79
v -4.27 .2 -4.9
v -4.31 .43 -4.94
v -4.21 .17 -5.09
v -4.25 .4 -5.14
v -4.22 .15 -5.2
v -4.26 .38 -5.24
v -3.81 .15 -5.5
v -3.84 .38 -5.55
v -3.8 .17 -5.43
v -3.83 .4 -5.48
v -3.8 .16 -5.44
v -3.8 .19 -5.31
v -3.84 .42 -5.36
v -4.01 .25 -4.85
v -4.05 .48 -4.89
v -4.79 .26 -3.99
v -4.84 .5 -4.02
v -4.95 .25 -3.9
v -4.99 .48 -3.94
v -5.03 .48 -3.93
v -5.05 .23 -3.88
v -5.1 .47 -3.92
v -5.08 .23 -3.88
v -5.15 .45 -3.92
v -5.16 .21 -3.91
v -5.2 .44 -3.94
v -5.21 .19 -3.95
v -5.25 .17 -4.01
v -5.3 .41 -4.05
v -5.56 -.05 -5.04
v -5.61 .18 -5.09
v -5.57 -.06 -5.05
v -5.61 .18 -5.09
v -5.57 -.06 -5.05
v -5.62 .18 -5.09
v -5.62 .17 -5.09
v -5.63 .17 -5.08
v -5.6 -.06 -5.04
v -5.65 .17 -5.08
v -5.67 .17 -5.06
v -5.84 -.11 -5.06
v -5.51 -.12 -5.51
v -5.56 .11 -5.56
v -5.37 -.12 -5.62
v -5.41 .11 -5.66
v -5.32 -.12 -5.64
v -5.36 .12 -5.69
v -5.29 -.11 -5.65
v -5.33 .12 -5.69
v -5.27 -.11 -5.65
v -5.31 .12 -5.7
v -5.25 -.11 -5.65
v -5.29 .13 -5.7
v -5.28 .13 -5.69
v -5.26 .13 -5.69
v -5.25 .14 -5.68
v -5.2 -.09 -5.62
v -5.19 .17 -5.56
v -4.32 -.05 -6.12
v -4.35 .18 -6.17
v -4.35 -.05 -6.12
v -4.38 .18 -6.17
v -4.44 -.06 -6.09
v -4.47 .17 -6.14
v -4.61 -.06 -5.99
v -4.83 -.06 -5.76
v -4.87 .18 -5.81
v -5 -.03 -5.46
v -5.04 .2 -5.51
v -5.04 -.01 -5.3
v -5.08 .23 -5.35
v -5.02 .06 -4.95
v -5.06 .3 -4.99
v -4.43 .05 -5.55
v -4.26 .02 -5.81
v -4.29 .26 -5.86
v -4.22 -.01 -5.98
v -4.26 .22 -6.03
v -4.23 -.03 -6.06
v -4.27 .21 -6.11
v -4.24 -.03 -6.09
v -4.28 .2 -6.13
v -4.26 -.04 -6.11
v -4.3 .19 -6.15
v -4.31 .19 -6.16
v -4.32 .19 -6.17
v -4.3 -.05 -6.12
v -4.33 .18 -6.17
v -6.59 -.25 -5.09
v -6.63 -.02 -5.12
v -6.35 -.18 -4.92
v -6.4 .05 -4.96
v -6.37 -.18 -4.91
v -6.42 .05 -4.95
v -6.69 -.19 -4.45
v -6.74 .05 -4.48
v -6.73 -.11 -3.8
v -6.64 .00 -3.05
v -6.65 .00 -3.02
v -6.11 .5 -1.44
v -6.22 .5 -.93
v -7.01 -.1 -3.17
v -7.06 .13 -3.2
v -7.05 -.21 -4.12
v -7.1 .02 -4.15
v -7.56 -.12 -1.74
v -6.2 .27 -.49
v -6.22 .27 -.19
v -6.38 .22 -.25
v -6.44 .46 -.25
v -6.31 .25 -.11
v -6.37 .48 -.11
v -6.18 .27 .34
v -6.24 .51 .34
v -6.22 .26 .58
v -6.28 .49 .59
v -6.26 .25 .63
v -6.31 .48 .64
v -6.3 .24 .67
v -6.36 .47 .67
v -6.33 .23 .68
v -6.39 .46 .68
v -6.36 .22 .68
v -6.13 .27 1.06
v -6.18 .5 1.07
v -6.04 .27 1.41
v -6.1 .5 1.42
v -6.11 .49 1.54
v -6.1 .25 1.6
v -6.14 .24 1.62
v -6.19 .47 1.64
v -6.18 .23 1.64
v -6.23 .46 1.66
v -6.33 .19 1.64
v -6.39 .42 1.66
v -7.7 -.12 1.06
v -7.74 -.12 .52
v -7.79 .12 .52
v -6.56 .16 1.14
v -6.55 .4 1.17
v -6.47 .18 1.17
v -6.53 .41 1.18
v -6.45 .18 1.16
v -6.5 .42 1.17
v -6.48 .42 1.17
v -6.41 .19 1.15
v -6.47 .43 1.16
v -6.4 .2 1.14
v -6.45 .43 1.15
v -6.38 .2 1.09
v -6.44 .44 1.1
v -6.41 .2 .93
v -6.47 .44 .94
v -6.55 .18 .7
v -6.6 .41 .7
v -7.82 .12 -.08
v -7.73 -.12 -.61
v -7.79 .12 -.61
v -6.66 .16 .18
v -6.66 .4 .21
v -6.57 .18 .21
v -6.63 .41 .21
v -6.55 .18 .22
v -6.51 .19 .2
v -6.57 .43 .21
v -6.5 .2 .19
v -6.48 .2 .15
v -6.49 .2 -.1
v -6.55 .43 -.1
v -6.55 .18 -.24
v -6.61 .42 -.24
v -6.6 .17 -.29
v -6.66 .4 -.29
v -6.88 -.11 3.5
v -6.93 .13 3.53
v -7.18 -.12 3.05
v -7.23 .11 3.08
v -7.33 -.09 2.16
v -7.39 .15 2.18
v -7.28 -.06 2.05
v -7.33 .17 2.06
v -7.19 -.04 1.97
v -7.25 .2 1.98
v -7.14 -.02 1.94
v -7.19 .21 1.96
v -7.08 -.01 1.93
v -7.13 .22 1.94
v -7.02 .01 1.92
v -7.07 .24 1.94
v -6.87 .04 1.93
v -6.93 .27 1.95
v -6.55 .11 2.03
v -6.61 .34 2.05
v -6.38 .14 2.11
v -6.43 .38 2.13
v -6.21 .17 2.21
v -6.26 .41 2.23
v -6.09 .2 2.3
v -6.14 .43 2.32
v -5.67 .25 2.68
v -5.72 .49 2.71
v -5.2 .27 3.39
v -5.25 .5 3.42
v -5.11 .24 3.73
v -5.16 .47 3.77
v -5.18 .19 3.96
v -5.22 .43 4
v -5.26 .17 4.05
v -5.3 .4 4.09
v -5.37 .13 4.11
v -5.42 .37 4.15
v -5.44 .12 4.13
v -5.48 .35 4.17
v -5.55 .09 4.15
v -5.7 .06 4.15
v -5.75 .29 4.19
v -5.93 .02 4.13
v -5.98 .25 4.16
v -6.13 -.02 4.07
v -6.18 .22 4.1
v -6.23 -.03 4.03
v -6.28 .2 4.06
v -6.43 -.06 3.92
v -6.48 .17 3.95
v -6.58 -.08 3.82
v -6.63 .16 3.85
v -7 -.05 2.7
v -6.76 -.05 3.27
v -6.81 .18 3.3
v -6.63 -.04 3.41
v -6.68 .19 3.43
v -6.48 -.02 3.52
v -6.53 .21 3.55
v -6.4 -.01 3.56
v -6.32 .01 3.6
v -6.37 .24 3.63
v -6.26 .26 3.66
v -5.78 .11 3.65
v -5.71 .13 3.64
v -5.76 .36 3.67
v -5.65 .14 3.62
v -5.7 .38 3.65
v -5.6 .16 3.6
v -5.65 .39 3.63
v -5.56 .17 3.57
v -5.61 .4 3.6
v -5.54 .18 3.53
v -5.59 .41 3.56
v -5.51 .2 3.44
v -5.56 .43 3.47
v -5.53 .21 3.33
v -5.58 .44 3.36
v -5.66 .21 3.06
v -5.71 .45 3.09
v -5.74 .21 2.97
v -5.79 .44 2.99
v -5.85 .19 2.85
v -5.91 .43 2.87
v -6.05 .41 2.77
v -6.18 .14 2.65
v -6.24 .38 2.67
v -6.3 .12 2.61
v -6.35 .35 2.63
v -6.76 .02 2.5
v -6.82 .01 2.5
v -6.88 .24 2.52
v -6.85  2.51
v -6.95 .22 2.54
v -6.94 -.03 2.55
v -6.99 .21 2.57
v -4.3 .27 4.5
v -4.1 .22 4.9
v -4.14 .46 4.95
v -3.99 .24 4.93
v -4.03 .47 4.97
v -3.92 .24 4.95
v -3.96 .48 4.99
v -3.75 .26 5.01
v -3.47 .27 5.13
v -3.51 .51 5.18
v -3.07 .26 5.44
v -3.1 .49 5.49
v -3 .25 5.53
v -2.96 .23 5.65
v -2.99 .46 5.7
v -3.04 .18 5.83
v -3.07 .41 5.88
v -3.19 .14 5.94
v -3.21 .37 5.99
v -4.35 .12 6.49
v -4.85 -.12 6.06
v -3.77 .12 5.69
v -3.8 .35 5.74
v -3.69 .38 5.68
v -3.59 .17 5.56
v -3.62 .4 5.61
v -3.6 .42 5.53
v -3.63 .43 5.46
v -3.66 .21 5.33
v -3.69 .44 5.38
v -3.84 .44 5.27
v -3.85 .21 5.2
v -3.89 .44 5.24
v -3.93 .44 5.22
v -4.04 .2 5.11
v -4.07 .43 5.16
v -4.08 .19 5.09
v -4.12 .42 5.14
v -4.18 .18 5.07
v -4.21 .41 5.11
v -4.27 .17 5.05
v -4.31 .4 5.09
v -4.46 .38 5.08
v -2.26 .12 7.48
v -2.33 -.12 7.4
v -2.35 .12 7.46
v -2.62 -.12 7.33
v -2.89 -.12 7.23
v -2.92 .11 7.28
v -3.25 -.08 6.88
v -3.27 .15 6.93
v -3.23 -.03 6.69
v -3.26 .2 6.74
v -3.16 .00 6.58
v -2.83 .09 6.34
v -2.86 .32 6.4
v -2.42 .17 6.16
v -2.44 .4 6.21
v -2.04 .22 6.06
v -1.49 .27 6.04
v -1.41 .27 6.04
v -1.42 .5 6.1
v -1.24 .27 6.06
v -1.25 .51 6.12
v -1.1 .27 6.1
v -1.11 .51 6.16
v -.97 .27 6.15
v -.98 .5 6.21
v -.81 .25 6.25
v -.82 .48 6.31
v .24 .42 5.59
v -1.28 .12 7.71
v -1.78 -.12 7.55
v -1.8 .12 7.61
v -1.67 .17 7.42
v -1.85 -.09 7.41
v -1.86 .15 7.47
v -2.02 -.1 7.44
v -2.62 -.04 6.96
v -2.64 .2 7.01
v -2.56 -.05 7.04
v -2.58 .18 7.1
v -2.49 -.06 7.1
v -2.51 .17 7.16
v -2.35 -.06 7.17
v -2.37 .17 7.23
v -2.27 -.06 7.2
v -2.18 -.06 7.22
v -2.2 .17 7.28
v -2.11 .17 7.3
v -2.01 -.05 7.25
v -2.02 .18 7.31
v -1.87 -.04 7.24
v -1.88 .19 7.3
v -1.73 -.03 7.21
v -1.74 .2 7.27
v -1.56 -.01 7.15
v -1.57 .22 7.21
v -1.02 .14 6.64
v -1.03 .38 6.7
v -1.05 .43 6.49
v -1.12 .21 6.36
v -1.17 .21 6.34
v -1.28 .45 6.36
v -1.34 .21 6.29
v -1.42 .21 6.28
v -1.43 .45 6.34
v -1.58 .2 6.28
v -1.66 .2 6.29
v -1.67 .43 6.35
v -1.9 .17 6.34
v -1.91 .4 6.39
v -2.12 .13 6.44
v -2.14 .36 6.49
v -2.6  6.82
v -2.62 .23 6.87
v -2.63 -.03 6.91
v -2.65 .21 6.97
# 2313 vertices

s off

usemtl Object

f 1 14 13
f 2 14 16
f 1 13 18
f 1 18 20
f 1 20 17
f 2 16 23
f 3 15 25
f 4 19 27
f 5 21 29
f 6 22 31
f 2 23 26
f 3 25 28
f 4 27 30
f 5 29 32
f 6 31 24
f 7 33 38
f 8 34 40
f 9 35 41
f 10 36 42
f 11 37 39
f 39 42 12
f 39 37 42
f 37 10 42
f 42 41 12
f 42 36 41
f 36 9 41
f 41 40 12
f 41 35 40
f 35 8 40
f 40 38 12
f 40 34 38
f 34 7 38
f 38 39 12
f 38 33 39
f 33 11 39
f 24 37 11
f 24 31 37
f 31 10 37
f 32 36 10
f 32 29 36
f 29 9 36
f 30 35 9
f 30 27 35
f 27 8 35
f 28 34 8
f 28 25 34
f 25 7 34
f 26 33 7
f 26 23 33
f 23 11 33
f 31 32 10
f 31 22 32
f 22 5 32
f 29 30 9
f 29 21 30
f 21 4 30
f 27 28 8
f 27 19 28
f 19 3 28
f 25 26 7
f 25 15 26
f 15 2 26
f 23 24 11
f 23 16 24
f 16 6 24
f 17 22 6
f 17 20 22
f 20 5 22
f 20 21 5
f 20 18 21
f 18 4 21
f 18 19 4
f 18 13 19
f 13 3 19
f 16 17 6
f 16 14 17
f 14 1 17
f 13 15 3
f 13 14 15
f 14 2 15
f 304 1852 305
f 807 817 806
f 79 2299 52
f 51 80 79
f 571 1192 1191
f 2293 2290 2291
f 70 2270 2284
f 69 2270 70
f 48 68 2281
f 2141 2142 2140
f 409 419 410
f 96 94 93
f 93 97 96
f 2202 91 90
f 48 69 68
f 307 313 308
f 2310 2309 2311
f 104 100 99
f 103 100 104
f 102 100 103
f 2045 2046 2044
f 75 2294 2295
f 121 120 119
f 588 1422 589
f 119 148 123
f 148 124 123
f 119 149 148
f 765 766 745
f 118 149 119
f 118 150 149
f 2162 142 127
f 1923 1921 1922
f 586 561 551
f 2017 2018 2016
f 1286 1419 1287
f 1422 1495 589
f 1452 570 1190
f 136 131 137
f 136 132 131
f 2098 773 2097
f 957 958 961
f 829 830 1997
f 1785 1786 1784
f 568 569 1188
f 1011 1762 394
f 1298 1295 1296
f 1328 1234 611
f 555 554 1428
f 189 167 163
f 189 168 167
f 189 188 168
f 188 169 168
f 188 175 169
f 175 170 169
f 187 175 188
f 187 176 175
f 174 170 175
f 187 177 176
f 186 177 187
f 185 2078 186
f 2087 2085 180
f 2153 2154 2156
f 113 153 152
f 1722 1635 1721
f 474 1715 1714
f 670 671 683
f 1221 1311 1313
f 198 207 199
f 197 207 198
f 1415 1416 1414
f 671 2282 683
f 257 256 259
f 143 761 2162
f 1411 1410 661
f 1877 934 320
f 255 259 256
f 255 1949 259
f 254 1949 255
f 254 227 1949
f 227 260 1949
f 253 228 254
f 228 227 254
f 226 260 227
f 253 229 228
f 1724 1725 1723
f 2106 2103 2104
f 231 230 253
f 704 2238 86
f 1933 1934 1932
f 251 238 237
f 250 238 251
f 443 1646 1647
f 248 240 249
f 248 241 240
f 1576 1574 539
f 1694 1083 1693
f 1962 1963 876
f 243 245 246
f 245 244 243
f 240 250 249
f 2240 666 685
f 1910 290 219
f 724 725 707
f 1571 1593 1572
f 361 336 362
f 218 292 1910
f 217 293 218
f 216 294 217
f 215 295 216
f 215 296 295
f 83 82 51
f 1672 1673 1671
f 1972 1969 1970
f 1706 1704 473
f 353 359 358
f 1119 1139 1558
f 286 266 1965
f 286 267 266
f 286 268 267
f 285 268 286
f 285 269 268
f 285 1983 269
f 284 1983 285
f 1902 283 282
f 283 1983 284
f 1902 1983 283
f 562 1441 1440
f 449 1681 1679
f 1109 1110 1606
f 1278 1279 1241
f 209 278 210
f 208 279 209
f 1171 1208 1170
f 1632 1633 1112
f 426 425 388
f 983 984 951
f 309 312 1861
f 308 312 309
f 308 313 312
f 399 371 1769
f 307 306 317
f 2158 140 2160
f 1492 1493 1491
f 617 1238 616
f 304 325 306
f 325 317 306
f 325 324 317
f 1055 1052 1641
f 320 1875 318
f 304 326 325
f 304 327 326
f 304 1849 328
f 1856 1857 1855
f 1503 1504 1502
f 303 302 332
f 1890 1892 1891
f 1890 1888 1892
f 344 1812 345
f 344 347 1812
f 2028 2027 2026
f 343 1813 347
f 342 1813 343
f 730 2237 2238
f 342 348 1813
f 341 348 342
f 341 1814 348
f 340 349 1814
f 339 349 340
f 339 350 349
f 1477 1474 1475
f 352 350 338
f 185 2091 184
f 336 360 1807
f 359 353 352
f 2223 719 2222
f 1077 1078 1064
f 2110 2107 2108
f 336 335 362
f 440 1643 1644
f 334 333 365
f 931 930 1869
f 383 385 384
f 382 385 383
f 382 1750 385
f 381 1750 382
f 381 386 1750
f 380 386 381
f 380 379 388
f 378 431 379
f 1511 501 1513
f 1273 1274 1245
f 429 388 430
f 378 432 431
f 1045 1046 995
f 1691 1082 1690
f 924 1857 1860
f 2054 2053 166
f 378 435 434
f 1345 1343 1344
f 1330 1327 1328
f 1228 1284 1220
f 622 654 653
f 377 391 1740
f 371 395 1764
f 393 392 377
f 416 415 414
f 876 1961 1962
f 411 417 412
f 411 418 417
f 410 419 418
f 1661 1662 1666
f 409 420 419
f 2296 695 75
f 408 421 420
f 370 1769 371
f 407 422 421
f 2128 2129 2127
f 370 400 1769
f 370 401 400
f 405 422 406
f 370 402 401
f 404 422 405
f 370 403 402
f 403 422 404
f 370 422 403
f 1910 291 290
f 352 360 359
f 397 398 1766
f 1447 1445 1448
f 1468 1466 1465
f 2222 2219 100
f 1751 1749 1748
f 1894 891 1983
f 429 1047 1799
f 1662 447 446
f 2015 2029 2030
f 463 449 1662
f 445 465 464
f 1713 1714 1089
f 460 449 461
f 1294 1216 1292
f 2171 2168 2169
f 1884 1881 1882
f 242 248 241
f 1846 985 1845
f 958 1809 1810
f 1455 1190 1453
f 466 1686 1685
f 1708 473 475
f 1797 1042 1796
f 313 1862 926
f 1213 1286 1289
f 2120 2122 2121
f 436 476 438
f 1656 1653 1654
f 529 537 530
f 2017 207 197
f 2219 2217 2218
f 790 2077 797
f 495 485 479
f 495 1632 485
f 1632 1607 485
f 494 1607 1632
f 493 1607 494
f 2114 2111 2112
f 2118 2115 2116
f 1665 1666 1670
f 425 1037 1790
f 1953 1952 1950
f 507 509 508
f 506 509 507
f 430 379 431
f 511 510 514
f 1527 548 505
f 548 547 505
f 690 683 2283
f 545 514 546
f 1527 549 548
f 2188 770 769
f 2248 2245 2246
f 1851 919 1850
f 550 504 1572
f 1353 1350 1351
f 503 517 504
f 1549 518 503
f 1974 1971 1972
f 533 1567 534
f 1678 1680 1064
f 406 422 407
f 1793 1791 425
f 532 535 534
f 531 536 535
f 1820 1821 1819
f 530 537 536
f 528 537 529
f 1516 525 524
f 527 537 528
f 1516 526 525
f 526 537 527
f 1516 537 526
f 2195 753 2194
f 952 1803 1804
f 498 497 1516
f 1173 1174 1176
f 1740 1738 1739
f 303 331 330
f 553 556 1428
f 552 556 553
f 1439 1440 1438
f 556 552 561
f 1601 1602 483
f 1387 1388 1386
f 673 2254 699
f 1794 1792 1797
f 769 2182 2181
f 1422 1457 1499
f 2116 2113 2114
f 1107 1106 489
f 582 581 562
f 1983 1982 276
f 2134 2135 2133
f 576 563 577
f 1422 1420 1457
f 514 547 546
f 2300 698 2299
f 1307 1306 1308
f 612 1329 1330
f 1824 972 355
f 154 772 2192
f 629 631 630
f 629 632 631
f 628 632 629
f 628 633 632
f 627 633 628
f 627 634 633
f 989 1787 986
f 634 627 1362
f 777 2048 2050
f 625 1362 626
f 638 1367 1362
f 1396 1395 1397
f 1475 1472 1473
f 340 1814 341
f 487 1616 1617
f 904 905 1909
f 1779 1776 1777
f 647 639 638
f 2197 707 90
f 496 479 1596
f 639 642 1379
f 711 2204 2207
f 1207 1183 1206
f 1039 1040 1005
f 959 1811 960
f 623 653 1401
f 622 653 623
f 621 654 622
f 620 655 621
f 1345 656 620
f 2299 2298 77
f 1650 1648 443
f 530 536 531
f 1332 662 613
f 682 694 695
f 1831 1832 1830
f 567 566 1457
f 1022 1023 1787
f 1375 1265 640
f 1302 1299 1300
f 1840 1838 1841
f 2286 2283 2285
f 1937 1936 1938
f 2008 2007 2009
f 1319 663 608
f 1319 664 663
f 1308 1309 1307
f 607 664 1319
f 598 602 601
f 606 664 607
f 597 602 598
f 597 603 602
f 605 664 606
f 597 604 603
f 591 1287 597
f 263 873 872
f 338 1806 1807
f 699 2254 698
f 673 699 2300
f 1970 1967 1968
f 1808 953 966
f 472 1702 1703
f 1326 1323 1324
f 565 1450 1449
f 689 2283 683
f 2282 689 683
f 671 2280 688
f 644 1381 642
f 921 922 926
f 710 712 709
f 709 712 713
f 829 1997 904
f 713 714 707
f 1522 1519 1520
f 723 715 716
f 722 723 716
f 721 722 716
f 2270 2285 2284
f 664 604 597
f 216 295 294
f 53 2254 52
f 611 1325 1326
f 794 180 2081
f 2203 2201 2200
f 1712 1709 1710
f 309 1861 310
f 743 744 740
f 1537 1538 1536
f 740 744 766
f 766 744 745
f 435 1036 1049
f 1597 479 1598
f 2189 2192 734
f 751 759 760
f 1906 1905 1902
f 1582 1159 1133
f 415 1782 1781
f 1211 1421 1210
f 1527 1525 1526
f 1366 1261 1365
f 539 1573 538
f 755 756 751
f 1708 1705 1706
f 755 751 752
f 613 1235 1332
f 219 1998 220
f 2264 2263 2265
f 1617 1614 1615
f 1174 1175 1176
f 2132 2133 2131
f 2053 165 167
f 641 1376 1377
f 1873 1874 933
f 800 2048 780
f 800 780 781
f 800 781 799
f 799 781 782
f 799 782 788
f 788 782 783
f 798 799 788
f 798 788 789
f 787 788 783
f 798 789 790
f 797 798 790
f 1999 908 826
f 2092 797 2077
f 793 2086 2088
f 1349 1346 1347
f 2019 2020 2018
f 1824 974 973
f 560 1436 1435
f 809 810 817
f 808 809 817
f 2076 2073 2074
f 1364 1365 1363
f 868 869 1948
f 286 265 287
f 865 866 1948
f 865 1948 870
f 864 865 870
f 864 870 838
f 838 870 871
f 863 864 839
f 839 864 838
f 837 838 871
f 863 839 840
f 841 842 863
f 311 310 1861
f 861 848 849
f 860 861 849
f 2226 90 2229
f 858 859 851
f 858 851 852
f 852 858 857
f 853 852 857
f 854 856 855
f 855 854 1936
f 364 334 365
f 1909 829 904
f 2108 2105 2106
f 1542 1543 1541
f 828 1909 906
f 827 828 907
f 2067 2065 170
f 826 827 1999
f 517 1572 504
f 825 826 908
f 825 908 909
f 1910 831 1909
f 2165 2163 143
f 1481 1478 1479
f 2212 2213 2211
f 2050 2051 2049
f 900 878 879
f 900 879 880
f 900 880 881
f 1026 1027 1786
f 899 900 881
f 899 881 882
f 899 882 891
f 898 899 891
f 1901 897 1990
f 1990 898 891
f 1901 1990 891
f 185 178 2078
f 1658 1655 1656
f 1335 1237 613
f 210 277 1902
f 1725 1726 1728
f 819 820 893
f 531 535 532
f 818 819 894
f 1025 1026 1032
f 2137 2136 2138
f 2039 2040 2038
f 1083 1695 1697
f 2104 2101 2102
f 1674 1069 1673
f 923 1860 925
f 922 923 925
f 922 925 926
f 532 534 1567
f 810 811 817
f 1864 928 929
f 1332 1331 612
f 221 1911 831
f 207 200 199
f 919 920 941
f 941 920 929
f 941 929 940
f 1998 219 290
f 938 939 1867
f 919 941 942
f 919 942 943
f 919 944 1848
f 1697 1695 443
f 918 948 917
f 1889 949 950
f 1889 950 1887
f 958 959 960
f 958 960 961
f 1696 1698 1053
f 957 961 962
f 956 957 962
f 956 962 963
f 955 956 963
f 955 963 964
f 947 918 946
f 954 964 965
f 953 954 965
f 953 965 966
f 338 350 339
f 1763 1764 395
f 966 967 968
f 1370 1369 1371
f 1803 1806 979
f 2188 2189 2187
f 978 968 969
f 515 1539 1538
f 660 1409 1408
f 2016 817 807
f 1803 981 1802
f 1192 572 1460
f 1509 500 1118
f 51 79 52
f 2280 2281 69
f 1304 1301 1302
f 951 984 1801
f 1753 1751 1752
f 1000 1001 1002
f 999 1000 1002
f 999 1002 1749
f 998 999 1749
f 998 1749 1003
f 997 998 1003
f 1005 996 997
f 1634 1594 1633
f 700 2301 82
f 995 996 1044
f 1390 1273 1272
f 1859 1860 1858
f 1799 1043 1005
f 995 1044 1045
f 1748 1745 1746
f 2296 60 76
f 849 845 844
f 1049 1036 995
f 1101 1611 1612
f 1504 1505 1507
f 1471 1468 1469
f 993 1008 1009
f 1763 1012 1731
f 1010 993 1009
f 1457 1454 1455
f 1031 1780 1030
f 1027 1028 1031
f 1027 1031 1786
f 1026 1786 1032
f 1025 1032 1033
f 1549 1550 1136
f 1024 1033 1034
f 989 1731 1768
f 1023 1034 1787
f 989 1768 1016
f 989 1016 1017
f 1021 1022 1787
f 989 1017 1018
f 1020 1021 1787
f 989 1018 1019
f 1019 1020 1787
f 989 1019 1787
f 541 1583 516
f 1442 1443 1441
f 126 2140 2139
f 1581 1157 540
f 1790 1789 424
f 1062 1063 1661
f 849 850 860
f 1960 288 1962
f 1078 1661 1064
f 1059 1079 1080
f 2058 781 2057
f 2039 2038 2036
f 1075 1076 1064
f 1526 1523 1524
f 1990 1994 1991
f 1535 1536 1534
f 1322 1320 608
f 878 1964 1965
f 1090 1704 1707
f 1935 235 236
f 1578 1575 1576
f 2193 2194 772
f 1051 1052 1053
f 463 445 464
f 600 1315 1223
f 1180 559 1434
f 1223 1314 600
f 587 551 1423
f 2246 670 47
f 243 247 242
f 1113 1095 1100
f 1113 1100 1112
f 1112 1100 1606
f 1111 1112 1606
f 1110 1111 1606
f 1630 1628 1632
f 1093 1095 1114
f 234 238 233
f 1125 1126 1127
f 1124 1125 1127
f 1827 1828 975
f 1130 1131 1132
f 1989 1990 1988
f 1122 1123 1166
f 1166 1123 1165
f 905 906 1909
f 1163 1164 1132
f 1122 1166 1167
f 1347 1241 1345
f 2126 2127 2125
f 1168 1121 1122
f 1344 1341 1342
f 1993 1998 1995
f 1120 1134 1135
f 1136 1120 1135
f 1479 1476 1477
f 1152 1150 1151
f 1895 821 1899
f 1462 1463 1461
f 980 981 1803
f 1149 1153 1154
f 1148 1154 1155
f 1924 836 1923
f 1147 1155 1156
f 2130 2131 2129
f 1145 1146 1156
f 1515 1566 1142
f 1144 1145 1156
f 1515 1142 1143
f 1143 1144 1156
f 1515 1143 1156
f 1393 1394 1274
f 1512 1515 1117
f 1324 1321 1322
f 559 1431 1430
f 397 1013 396
f 1173 1176 1177
f 2271 65 2273
f 1172 1173 1177
f 1603 1605 1099
f 1182 1435 1178
f 74 2292 2293
f 1602 482 485
f 900 877 878
f 410 418 411
f 1719 1718 1720
f 1184 1195 1196
f 1473 1470 1471
f 1421 1498 1456
f 1202 1203 1440
f 1312 1313 1311
f 336 361 360
f 1196 1197 1184
f 1421 1456 1169
f 1373 1264 1372
f 847 846 1934
f 2147 2149 2144
f 1251 1252 1253
f 1251 1253 1254
f 1250 1251 1254
f 1250 1254 1255
f 1249 1250 1255
f 1249 1255 1256
f 1256 1257 1259
f 1545 1544 1546
f 1247 1248 1259
f 1262 1259 1261
f 1872 319 1873
f 2311 2312 2310
f 134 754 2152
f 1999 1998 294
f 2173 2170 2171
f 1269 1262 1263
f 217 294 293
f 132 135 112
f 1263 1267 1268
f 1965 883 878
f 1400 652 1401
f 1245 1400 1275
f 1244 1245 1275
f 306 1853 920
f 1243 1244 1276
f 1242 1243 1277
f 1241 1242 1278
f 2167 2164 2165
f 1282 1235 1236
f 1692 1693 1082
f 2011 2010 214
f 1800 1048 1047
f 367 370 368
f 462 449 463
f 623 1393 650
f 2289 2286 2287
f 1814 962 1813
f 752 2150 731
f 1318 1320 1283
f 1318 1283 1284
f 1231 1318 1284
f 1221 1225 1226
f 1230 1231 1284
f 1220 1221 1226
f 1220 1226 1227
f 1229 1230 1284
f 1220 1227 1228
f 1219 1220 1213
f 1789 994 1036
f 1490 1491 1489
f 1953 834 871
f 2226 2228 2227
f 2126 2125 2123
f 1591 1592 1590
f 1783 1784 1782
f 599 1303 1304
f 2007 2004 2003
f 2057 2056 2058
f 1204 1203 582
f 521 502 522
f 1587 1586 1583
f 320 933 1875
f 608 1318 1319
f 2190 153 2191
f 1771 1768 1769
f 2066 786 783
f 1861 926 1860
f 1146 1147 1156
f 76 696 2296
f 1886 1883 1884
f 1568 1150 1567
f 170 2059 783
f 1813 960 1812
f 408 420 409
f 356 975 1826
f 2065 2064 173
f 892 893 820
f 2270 2271 683
f 394 1763 1011
f 2021 2022 2020
f 422 1035 1787
f 1274 1392 1393
f 1165 1132 1164
f 1374 1265 1264
f 1720 1721 1719
f 1609 1610 1608
f 1567 1566 524
f 110 132 111
f 1680 1678 1679
f 47 669 46
f 648 638 624
f 133 2152 753
f 675 2256 2259
f 1193 1461 1456
f 943 944 919
f 1529 1122 1527
f 1276 1277 1243
f 1420 1421 1169
f 1423 1421 1422
f 1425 1170 1423
f 1425 1171 1424
f 1987 1988 1986
f 1270 1262 1269
f 456 1676 455
f 1023 1024 1034
f 854 857 856
f 707 727 728
f 363 335 364
f 791 2092 2077
f 1496 1495 1497
f 1362 1363 1259
f 1583 1158 1581
f 1457 1169 1456
f 1459 1191 1458
f 2078 179 792
f 2222 2220 2221
f 1465 1463 574
f 1622 489 1612
f 1854 1855 1853
f 292 218 293
f 616 1337 615
f 1482 1480 1481
f 1367 1368 1261
f 2143 2144 2142
f 893 894 819
f 1684 1073 1072
f 1635 1639 1637
f 186 2078 177
f 1945 1946 869
f 1497 1498 1496
f 1499 1458 1498
f 250 239 238
f 1434 1435 1182
f 209 279 278
f 2260 2259 2261
f 642 1267 1379
f 1427 1171 551
f 1516 1513 1514
f 1518 1515 1516
f 1520 1517 1518
f 1408 1407 660
f 1976 1973 1974
f 1269 1263 1383
f 851 860 850
f 1516 524 523
f 1176 1426 1427
f 1540 1541 1539
f 1818 1815 1816
f 1167 1168 1122
f 518 1136 1135
f 1553 1554 1552
f 1555 1556 1554
f 1557 1138 1556
f 520 1139 1138
f 1943 1942 1944
f 1148 1149 1154
f 2265 680 2264
f 533 1151 1568
f 752 754 755
f 1277 1278 1242
f 538 1571 1572
f 639 647 646
f 1437 1438 1436
f 52 2252 2253
f 2100 2099 2151
f 99 2211 715
f 196 195 207
f 108 107 90
f 1595 1092 1594
f 1596 1092 477
f 478 1093 1596
f 478 1095 1094
f 620 656 655
f 1744 1741 1742
f 533 1569 1152
f 322 1876 1877
f 485 1606 1100
f 1607 1608 1606
f 661 1412 1411
f 646 1383 1382
f 147 124 148
f 486 1103 1102
f 473 1088 472
f 1756 1757 1755
f 2295 694 74
f 1619 1104 487
f 488 1618 1619
f 1621 1105 488
f 489 1620 1621
f 1043 996 1005
f 906 907 828
f 1379 1378 641
f 1879 1878 322
f 412 1772 1773
f 947 948 918
f 1399 651 652
f 1139 521 522
f 1377 1266 1375
f 2304 2303 2307
f 1675 1070 1069
f 1372 1371 1373
f 373 1732 372
f 1978 1975 1976
f 719 716 718
f 954 955 964
f 1689 1690 1688
f 1580 1577 1578
f 2253 2250 2251
f 180 793 2079
f 977 978 969
f 1828 1829 1831
f 208 1893 1894
f 2085 2084 181
f 223 1913 1914
f 1605 483 485
f 1484 1483 1486
f 1548 1135 1547
f 1713 1711 1712
f 2261 2262 2260
f 983 951 1802
f 655 654 621
f 1354 1353 1356
f 1101 1106 1107
f 1305 599 1306
f 1836 1835 1837
f 1413 1414 1412
f 1079 1683 466
f 1546 1547 1545
f 1563 1565 1566
f 1444 1445 1443
f 1905 1906 1908
f 1384 1383 1387
f 407 421 408
f 302 1885 1886
f 891 882 884
f 1391 650 1392
f 2059 2060 171
f 392 1010 1009
f 1662 1659 1660
f 49 2247 2248
f 2098 2097 2094
f 1698 1699 1700
f 615 1337 1336
f 1775 1028 412
f 77 2297 76
f 415 1780 414
f 779 2054 780
f 2241 44 2243
f 355 971 1823
f 2313 2274 2312
f 2044 2043 2045
f 424 1036 1788
f 1494 1211 1493
f 1342 1339 1340
f 1612 1102 1101
f 1501 1502 1500
f 1319 1225 601
f 2232 2233 2237
f 333 951 1801
f 335 951 334
f 335 1803 1802
f 1805 1803 336
f 337 1804 1805
f 337 1806 952
f 1209 1210 1421
f 1147 1148 1155
f 1867 1865 1864
f 1816 964 1814
f 46 2243 2244
f 1397 1398 1396
f 1922 1920 225
f 336 337 1805
f 1822 971 1821
f 1561 1562 1140
f 1799 1798 429
f 1615 1103 1613
f 1588 1586 1591
f 2251 2249 49
f 1024 1025 1033
f 371 1732 1729
f 1985 1986 1984
f 946 918 1848
f 1551 1552 1550
f 1902 822 1900
f 1742 994 1740
f 1981 1980 275
f 43 2239 63
f 1843 985 1842
f 366 985 1844
f 1847 1845 366
f 1847 1842 1846
f 303 917 302
f 303 1848 918
f 304 1848 1849
f 304 1850 919
f 305 1851 1850
f 306 1851 1852
f 702 672 701
f 1465 1457 575
f 434 1049 1048
f 1773 1770 1771
f 1009 1760 392
f 1015 1768 1731
f 319 931 1870
f 2003 2000 2001
f 2162 2160 2161
f 1629 1624 1623
f 2279 2280 2278
f 2169 2166 2167
f 1300 1297 1298
f 1053 1088 1090
f 1189 1190 1451
f 1890 1887 1888
f 1890 949 1889
f 1891 950 949
f 1888 950 1892
f 1844 1847 366
f 1898 821 211
f 212 1897 1898
f 1900 1899 212
f 1940 1941 1939
f 2221 718 2219
f 291 1910 292
f 1916 1914 224
f 1917 1915 1916
f 1919 835 1917
f 225 1918 1919
f 540 1579 1580
f 222 1912 833
f 432 378 433
f 1933 1930 1931
f 235 1934 1935
f 311 1858 1857
f 1944 869 1943
f 824 914 915
f 1947 1948 1946
f 259 870 1948
f 1949 871 870
f 260 1950 871
f 1999 827 907
f 1739 1736 1737
f 264 874 1955
f 1956 1957 874
f 1958 1959 1957
f 1960 875 1959
f 1980 888 1979
f 1652 1649 1650
f 271 883 270
f 323 936 1879
f 211 1895 1896
f 1979 1977 1978
f 414 1778 1779
f 2153 135 2154
f 1896 818 208
f 1450 566 567
f 2024 815 2027
f 1838 1837 1839
f 783 168 170
f 1291 1216 1288
f 2035 193 192
f 725 2228 2230
f 1736 1734 1733
f 2011 2012 916
f 2013 1984 2012
f 2094 2092 185
f 196 2016 807
f 203 2022 202
f 203 814 813
f 204 2023 814
f 205 2024 2023
f 206 815 2024
f 2025 816 815
f 600 1314 598
f 346 345 1812
f 156 773 155
f 157 2031 156
f 157 2033 2032
f 158 2034 2033
f 2225 720 2223
f 1710 1707 1708
f 1702 1085 1701
f 244 846 235
f 974 1826 969
f 549 1527 550
f 1570 1500 1569
f 423 1723 1035
f 1098 1599 1600
f 1202 1201 1482
f 1834 1833 1835
f 1677 1071 456
f 2063 2061 172
f 173 2062 2063
f 1311 1310 1312
f 2067 785 2065
f 2069 2066 2067
f 2070 2068 2069
f 2072 786 2070
f 2074 2071 2072
f 1358 1359 1362
f 1825 1826 974
f 2083 794 2081
f 181 2082 2083
f 54 2257 2256
f 2087 795 2085
f 182 2086 2087
f 183 2088 182
f 2090 796 183
f 184 2089 2090
f 1688 1687 1689
f 1660 1657 1658
f 1345 657 656
f 1671 1670 1672
f 1317 1225 1315
f 1810 1808 338
f 1820 1817 1818
f 1407 1402 1403
f 779 2052 2053
f 418 1787 1786
f 1849 330 329
f 196 2014 2015
f 343 347 344
f 563 575 1457
f 2278 2277 2279
f 803 804 2034
f 2008 2009 2011
f 393 1761 1010
f 979 980 1803
f 968 979 1806
f 166 2055 2054
f 2048 2047 163
f 356 1825 353
f 2207 2208 2206
f 449 462 461
f 1149 1150 1153
f 1647 1644 1645
f 327 304 328
f 1389 1272 1388
f 331 303 332
f 2191 2192 2190
f 2307 2308 2306
f 2275 2276 2274
f 87 704 86
f 88 705 87
f 88 706 2196
f 89 707 706
f 205 202 207
f 1275 1276 1244
f 923 924 1860
f 438 472 471
f 1296 1293 1294
f 1351 1348 1349
f 2214 717 2213
f 101 717 2215
f 2218 2216 101
f 263 1955 873
f 1746 1743 1744
f 1769 1766 1767
f 1417 1418 1416
f 1863 1864 1862
f 2112 2109 2110
f 276 1982 1980
f 1740 424 1788
f 1535 1532 1531
f 1759 1758 1760
f 492 1607 493
f 210 278 277
f 1464 1195 1456
f 1134 1571 1573
f 2291 2288 2289
f 61 680 60
f 62 681 61
f 62 682 2266
f 2269 682 2267
f 2270 2268 2269
f 1968 1966 271
f 1078 1059 1661
f 1928 1926 1927
f 1654 1651 1652
f 934 935 1867
f 98 2209 2208
f 2138 2139 2137
f 1076 1077 1064
f 1882 1880 323
f 1777 1774 1775
f 1126 1528 1529
f 1487 1205 1490
f 573 1460 1457
f 1812 1811 346
f 1524 1521 1522
f 2210 715 2209
f 2180 2178 2177
f 1716 1717 1715
f 1867 940 929
f 553 1428 554
f 2175 2172 2173
f 2042 2041 2043
f 2177 2174 2175
f 1340 1338 617
f 455 1070 454
f 1141 1566 1515
f 304 306 1852
f 571 572 1192
f 2293 2292 2290
f 2141 2143 2142
f 96 95 94
f 99 98 90
f 98 97 90
f 97 93 90
f 93 92 90
f 92 2202 90
f 48 2270 69
f 2310 2308 2309
f 2045 2047 2046
f 75 695 2294
f 123 122 119
f 122 121 119
f 125 124 143
f 124 147 146
f 124 146 145
f 127 126 2162
f 126 125 2162
f 129 128 142
f 128 127 142
f 131 130 142
f 130 129 142
f 138 137 131
f 139 138 131
f 124 145 144
f 124 144 143
f 139 131 2158
f 2158 131 140
f 140 131 141
f 125 143 2162
f 141 131 142
f 1923 836 1921
f 586 585 561
f 2017 2019 2018
f 1286 1418 1419
f 1422 1499 1495
f 570 1453 1190
f 1190 1189 1188
f 1188 1452 1190
f 2098 155 773
f 1785 418 1786
f 569 1452 1188
f 1188 1451 1187
f 1187 568 1188
f 1011 1761 1762
f 1298 1297 1295
f 1328 1327 1234
f 179 178 184
f 178 185 184
f 2080 179 183
f 179 184 183
f 2083 2081 181
f 2081 180 181
f 180 2080 182
f 2080 183 182
f 2085 181 180
f 180 182 2087
f 2156 2158 2153
f 2158 2157 2155
f 2153 2158 2155
f 2181 150 118
f 118 117 152
f 117 116 152
f 116 2118 152
f 2118 115 152
f 115 114 152
f 114 113 152
f 113 112 153
f 112 135 134
f 112 134 133
f 2181 118 2183
f 2183 118 2184
f 2184 118 151
f 112 133 2193
f 112 2193 154
f 151 118 152
f 112 154 153
f 1722 1636 1635
f 474 1716 1715
f 684 2273 666
f 2273 685 666
f 684 666 667
f 667 2242 684
f 2242 668 683
f 684 2242 683
f 668 669 683
f 669 670 683
f 1224 1225 1221
f 1221 1303 1307
f 1303 1222 1307
f 1315 1224 1221
f 1223 1315 1221
f 1221 1307 1311
f 1313 1223 1221
f 1415 1417 1416
f 671 688 2282
f 1945 258 259
f 258 257 259
f 143 2163 761
f 1411 1409 1410
f 1877 1876 934
f 1724 1726 1725
f 2106 2105 2103
f 252 251 234
f 234 232 252
f 232 231 253
f 230 229 253
f 232 253 252
f 704 730 2238
f 1933 1935 1934
f 443 1648 1646
f 1576 1575 1574
f 1694 1695 1083
f 1962 1964 1963
f 240 239 250
f 685 65 2239
f 2239 2241 685
f 2241 2240 685
f 707 715 723
f 707 723 724
f 725 726 707
f 1571 1592 1593
f 2302 80 51
f 51 50 83
f 50 49 84
f 48 2281 67
f 48 67 66
f 50 84 83
f 49 48 85
f 84 49 85
f 81 2302 51
f 82 81 51
f 48 66 85
f 1672 1674 1673
f 1972 1971 1969
f 1706 1705 1704
f 1562 1141 1515
f 1515 1119 1140
f 1119 1120 1138
f 1138 1120 1556
f 1120 1136 1137
f 1120 1137 1556
f 1560 1562 1515
f 1140 1560 1515
f 1119 1138 1139
f 1558 1140 1119
f 562 1442 1441
f 453 452 449
f 452 451 450
f 449 452 450
f 449 460 459
f 449 459 458
f 454 1675 455
f 1675 453 449
f 455 1675 456
f 456 1675 457
f 449 458 1682
f 449 1682 1681
f 457 1675 1679
f 1679 1675 449
f 1171 1207 1208
f 1208 1209 1170
f 1209 1421 1170
f 1170 1424 1171
f 1632 1634 1633
f 390 1758 425
f 1758 389 425
f 425 389 388
f 388 429 1798
f 388 1798 428
f 391 390 1790
f 1790 424 391
f 425 1790 390
f 388 428 427
f 388 427 426
f 317 316 315
f 315 314 317
f 314 313 317
f 313 307 317
f 140 2161 2160
f 2160 2159 2157
f 2157 2158 2160
f 1492 1494 1493
f 617 1338 1238
f 1641 440 1055
f 1055 1640 1052
f 1052 1639 1641
f 318 317 320
f 317 324 323
f 317 323 322
f 319 1870 1873
f 1870 318 1875
f 1873 1870 1874
f 1874 1870 1875
f 317 322 321
f 317 321 320
f 1856 311 1857
f 1503 1505 1504
f 2028 2030 2029
f 2029 2027 2028
f 2027 816 2026
f 730 2236 2237
f 1477 1476 1474
f 338 1807 352
f 352 351 350
f 185 2092 2091
f 2223 720 719
f 2110 2109 2107
f 1643 1645 1644
f 1644 1642 1055
f 1055 440 1644
f 1867 1868 930
f 1868 1869 930
f 1869 1870 931
f 387 386 388
f 386 380 388
f 501 1514 1513
f 1513 1512 1118
f 1118 1511 1513
f 1399 1400 1245
f 1246 1270 1271
f 1246 1271 1272
f 1398 1399 1245
f 1396 1398 1245
f 1245 1246 1273
f 1246 1272 1273
f 1274 1396 1245
f 1691 1692 1082
f 924 1855 1857
f 2054 779 2053
f 1800 433 378
f 378 1740 1788
f 378 1788 435
f 434 1800 378
f 1345 1241 1343
f 1330 1329 1327
f 1228 1229 1284
f 377 392 391
f 371 399 398
f 371 398 397
f 373 372 371
f 375 374 371
f 374 373 371
f 377 376 1764
f 376 375 371
f 1764 376 371
f 394 393 377
f 1764 394 377
f 371 397 396
f 371 396 395
f 412 417 413
f 417 416 414
f 413 417 414
f 876 875 1961
f 1662 1664 1666
f 1666 1665 1663
f 1663 1661 1666
f 2296 696 695
f 2128 2130 2129
f 352 1807 360
f 398 1767 1766
f 1766 1014 1765
f 1765 397 1766
f 1445 1446 1448
f 1448 565 1447
f 565 1449 1447
f 1464 1465 1466
f 1465 1467 1468
f 1467 1469 1468
f 2219 101 2212
f 101 2215 2212
f 2212 100 2219
f 100 102 2223
f 100 2223 2222
f 1750 1752 1751
f 1749 1747 1748
f 1750 1751 1748
f 1894 1893 891
f 429 1800 1047
f 446 445 1662
f 1662 448 447
f 2015 2014 2029
f 1713 474 1714
f 1294 1293 1216
f 2171 2170 2168
f 1884 1883 1881
f 242 247 248
f 1846 1842 985
f 1810 344 346
f 346 1811 1810
f 1811 958 1810
f 1455 1454 1190
f 466 1687 1686
f 473 472 475
f 475 474 1712
f 474 1713 1712
f 1712 1708 475
f 1797 1798 1042
f 313 1863 1862
f 1286 1287 591
f 591 1289 1286
f 1289 1288 1213
f 2117 2118 2119
f 2118 2120 2121
f 2119 2118 2121
f 476 475 438
f 438 1639 437
f 437 436 438
f 1656 1655 1653
f 2017 196 207
f 2219 718 2217
f 2114 2113 2111
f 2118 2117 2115
f 1666 1668 1670
f 1670 1669 1667
f 1667 1665 1670
f 425 1791 1037
f 1950 1951 261
f 261 1954 1950
f 1954 1953 1950
f 430 388 379
f 510 509 514
f 509 506 514
f 506 505 514
f 514 513 512
f 512 511 514
f 690 2286 683
f 2184 151 2186
f 2186 2188 2184
f 2188 2187 2185
f 2188 2185 770
f 769 2184 2188
f 2248 2247 2245
f 1851 920 919
f 550 1527 504
f 1353 1352 1350
f 503 518 517
f 1974 1973 1971
f 533 1568 1567
f 1074 1075 1064
f 1064 1065 1067
f 1065 1066 1067
f 1067 1068 1064
f 1068 1069 1064
f 1069 1070 1676
f 1069 1676 1071
f 1073 1074 1064
f 1072 1073 1064
f 1069 1071 1677
f 1069 1677 1678
f 1064 1069 1678
f 1680 1072 1064
f 1793 1792 1791
f 1820 1822 1821
f 2195 133 753
f 952 1806 1803
f 497 537 1516
f 1516 501 499
f 501 1511 500
f 499 501 500
f 499 498 1516
f 1740 994 1738
f 1439 562 1440
f 552 551 561
f 561 560 556
f 560 1434 557
f 1434 1433 558
f 1433 559 558
f 558 557 1434
f 557 556 560
f 1602 1604 483
f 483 1605 1603
f 1603 1601 483
f 1387 1389 1388
f 1792 1793 1797
f 1793 1795 1797
f 1797 1796 1794
f 2183 2184 769
f 2182 2180 2181
f 2183 769 2181
f 2116 2115 2113
f 489 1622 490
f 490 1623 489
f 1623 1107 489
f 563 562 579
f 562 561 584
f 579 562 580
f 561 585 1486
f 561 1486 1485
f 578 577 563
f 579 578 563
f 561 1485 584
f 584 583 562
f 580 562 1482
f 1482 562 581
f 583 582 562
f 1983 891 1982
f 2134 2136 2135
f 514 505 547
f 2299 80 2302
f 2302 2301 2299
f 2301 2300 2299
f 1307 1305 1306
f 612 1331 1329
f 1824 973 972
f 154 2193 772
f 1787 1035 986
f 986 987 989
f 987 988 989
f 627 626 1362
f 1362 636 635
f 635 634 1362
f 163 164 2048
f 164 2050 2048
f 2050 2049 777
f 637 1362 1367
f 1362 625 638
f 625 624 638
f 1396 1394 1395
f 1475 1474 1472
f 487 1104 1616
f 1779 1778 1776
f 90 2198 2200
f 2200 2199 90
f 2199 2197 90
f 496 495 479
f 479 478 1596
f 1596 477 1595
f 1595 496 1596
f 639 646 645
f 639 645 644
f 640 1374 1375
f 1374 639 1379
f 1375 1374 641
f 641 1374 1379
f 639 644 643
f 639 643 642
f 2204 2205 95
f 95 2207 2204
f 2207 2206 711
f 1207 1171 1183
f 1005 1006 1038
f 1006 1007 1038
f 1038 1007 1037
f 1007 1008 1037
f 1008 1789 1037
f 1042 1799 1005
f 1041 1042 1005
f 1040 1041 1005
f 1005 1038 1039
f 2299 698 2298
f 1650 1649 1648
f 659 658 661
f 658 657 661
f 657 1345 614
f 1345 619 616
f 614 1345 615
f 619 618 617
f 617 616 619
f 616 615 1345
f 1407 659 660
f 661 660 659
f 663 662 611
f 662 661 657
f 611 662 1330
f 609 608 663
f 610 609 663
f 1335 657 614
f 657 1335 662
f 610 663 611
f 1330 662 612
f 1335 1334 662
f 1334 613 662
f 612 662 1332
f 697 698 679
f 698 2254 674
f 674 2255 698
f 698 2255 677
f 2255 2256 675
f 675 676 2255
f 676 677 2255
f 677 678 698
f 678 679 698
f 680 681 2266
f 679 680 697
f 697 680 2298
f 680 2266 682
f 682 2268 683
f 683 2286 691
f 683 691 692
f 680 682 695
f 682 683 694
f 2297 2298 680
f 683 692 693
f 683 693 694
f 696 2297 680
f 695 696 680
f 1831 1833 1832
f 565 564 1457
f 564 563 1457
f 1457 566 565
f 1457 1453 567
f 1453 570 569
f 570 1452 569
f 569 568 1453
f 568 567 1453
f 1375 1266 1265
f 1302 1301 1299
f 1839 1841 1838
f 1841 333 1840
f 333 1801 1840
f 2285 2287 2286
f 2286 690 2283
f 2283 2284 2285
f 244 1938 1936
f 1938 1940 1937
f 1940 1939 1937
f 2008 2006 2007
f 1308 1310 1309
f 590 665 597
f 665 664 597
f 590 597 1287
f 597 596 591
f 596 595 591
f 595 594 592
f 594 1292 593
f 593 592 594
f 592 591 595
f 1953 1954 872
f 1954 262 872
f 262 263 872
f 338 1808 1806
f 1970 1969 1967
f 472 1088 1702
f 1326 1325 1323
f 565 566 1450
f 1268 642 1380
f 642 643 644
f 1380 642 1381
f 710 711 712
f 715 707 714
f 707 708 2201
f 713 707 709
f 2201 2203 707
f 2203 709 707
f 1522 1521 1519
f 2270 2287 2285
f 664 605 604
f 53 674 2254
f 611 1234 1325
f 794 793 180
f 2200 2202 92
f 92 93 2200
f 93 2205 2203
f 2205 2204 709
f 2205 709 2203
f 93 2203 2200
f 2201 2199 2200
f 1712 1711 1709
f 740 741 742
f 742 743 740
f 1537 515 1538
f 435 1788 1036
f 1598 1600 1599
f 1597 1095 479
f 1598 1599 1597
f 2152 754 734
f 734 735 2189
f 735 736 771
f 736 737 771
f 737 2117 771
f 2117 2119 771
f 2119 738 771
f 738 739 771
f 739 740 771
f 740 766 767
f 740 767 768
f 735 771 2189
f 753 2152 734
f 772 753 734
f 771 740 770
f 740 768 769
f 740 769 770
f 2192 772 734
f 764 765 745
f 745 746 2163
f 746 2139 761
f 745 762 763
f 2139 747 761
f 747 748 760
f 761 747 760
f 748 749 760
f 749 750 760
f 750 751 760
f 751 756 757
f 751 757 758
f 764 745 763
f 762 745 2163
f 751 758 2157
f 751 2157 2159
f 2163 746 761
f 751 2159 759
f 1901 1902 1903
f 1902 1904 1906
f 1903 1902 1905
f 1162 1163 1132
f 1132 1539 1133
f 1133 1134 1582
f 1134 1573 1574
f 1134 1574 1577
f 1162 1132 1161
f 1132 1133 1159
f 1161 1132 1160
f 1160 1132 1159
f 1134 1577 1157
f 1134 1157 1158
f 1134 1158 1582
f 415 1783 1782
f 1211 1498 1421
f 1527 1122 1525
f 1366 1367 1261
f 539 1574 1573
f 1708 1707 1705
f 613 1236 1235
f 2264 2262 2263
f 1617 1616 1614
f 2132 2134 2133
f 164 163 165
f 163 167 165
f 167 166 2053
f 641 1378 1376
f 1874 1875 933
f 933 932 1872
f 1872 1873 933
f 2092 791 2091
f 791 792 2091
f 792 2079 796
f 2091 792 796
f 793 794 2084
f 794 2082 2084
f 2079 793 2088
f 796 2079 2088
f 793 2084 795
f 793 795 2086
f 1349 1348 1346
f 2019 2021 2020
f 1824 1825 974
f 560 1437 1436
f 2076 2075 2073
f 1364 1366 1365
f 866 867 1948
f 867 868 1948
f 286 1965 265
f 842 843 863
f 843 845 862
f 845 861 862
f 862 863 843
f 863 840 841
f 311 1856 310
f 2226 104 90
f 104 99 90
f 90 105 2229
f 2108 2107 2105
f 1542 1544 1543
f 173 2063 172
f 172 171 173
f 171 170 173
f 170 174 2074
f 170 2074 2070
f 2065 173 170
f 170 2070 2067
f 517 538 1572
f 1910 221 831
f 2165 2164 2163
f 1481 1480 1478
f 2212 2214 2213
f 2050 2052 2051
f 1658 1657 1655
f 1236 613 1333
f 613 1334 1335
f 1333 613 1237
f 277 1983 1902
f 1902 1900 1896
f 1900 212 1896
f 212 211 1896
f 1896 210 1902
f 1728 1730 1725
f 1730 1729 1727
f 1725 1730 1727
f 2137 2135 2136
f 2039 2041 2040
f 1697 1699 1083
f 1699 1698 1083
f 1698 1696 1083
f 2104 2103 2101
f 1674 1675 1069
f 929 920 921
f 921 926 929
f 926 927 929
f 927 1864 929
f 1332 1235 1331
f 221 222 1911
f 466 465 445
f 445 444 467
f 444 443 1695
f 467 444 1692
f 443 442 438
f 442 441 438
f 438 441 439
f 441 440 439
f 438 471 470
f 438 470 469
f 466 445 467
f 1692 444 1694
f 438 469 468
f 438 468 1700
f 1694 444 1695
f 438 1700 1699
f 438 1699 1697
f 443 438 1697
f 1086 1087 1053
f 1053 1054 1056
f 1054 1055 1056
f 1056 1057 1053
f 1057 1648 1053
f 1648 1058 1083
f 1083 1058 1693
f 1059 1080 1685
f 1059 1685 1081
f 1058 1059 1081
f 1693 1058 1082
f 1085 1086 1053
f 1701 1085 1053
f 1053 1648 1696
f 1081 1082 1058
f 1084 1701 1053
f 1698 1084 1053
f 1648 1083 1696
f 395 396 1763
f 396 1013 1763
f 1013 1012 1763
f 968 1806 1808
f 1808 966 968
f 1370 1368 1369
f 2188 153 2189
f 515 1540 1539
f 660 1410 1409
f 2016 808 817
f 1460 573 1192
f 573 1461 1192
f 1461 1193 1192
f 500 1511 1118
f 1118 1510 1508
f 1508 1509 1118
f 69 2284 2280
f 2284 2283 2280
f 2283 2282 2280
f 1304 1303 1301
f 1752 1754 1755
f 1754 1756 1755
f 1752 1755 1753
f 997 1003 1005
f 1003 1004 1005
f 1634 1595 1594
f 2301 2302 82
f 2302 81 82
f 82 2303 700
f 1390 650 1273
f 1859 1861 1860
f 1748 1747 1745
f 71 2287 2270
f 2270 2269 2267
f 2267 62 60
f 62 61 60
f 60 59 78
f 59 58 2299
f 60 78 77
f 72 71 2270
f 2270 2267 74
f 2267 60 75
f 74 2267 75
f 58 57 2299
f 57 56 54
f 56 55 54
f 55 2257 54
f 54 53 2299
f 53 52 2299
f 54 2299 57
f 2299 78 59
f 73 72 2270
f 74 73 2270
f 77 76 60
f 2296 75 60
f 849 861 845
f 995 1046 1047
f 995 1047 1048
f 1036 994 995
f 995 1048 1049
f 1101 1610 1611
f 1507 1509 1504
f 1509 1508 1504
f 1508 1506 1504
f 1471 1470 1468
f 993 994 1008
f 1014 1015 1731
f 1731 1732 1733
f 1733 990 1731
f 990 991 1731
f 991 992 1731
f 992 993 1763
f 993 1010 1011
f 993 1011 1763
f 992 1763 1731
f 1014 1731 1765
f 1765 1731 1013
f 1013 1731 1012
f 1457 1456 1454
f 1031 1028 1029
f 1029 1780 1031
f 1780 1781 1030
f 1549 1551 1550
f 517 516 1583
f 516 1540 514
f 1540 515 514
f 514 545 544
f 514 544 543
f 516 514 541
f 517 1583 1581
f 539 538 517
f 1578 539 517
f 514 543 542
f 514 542 541
f 1578 517 540
f 540 517 1581
f 1442 1444 1443
f 126 2141 2140
f 1581 1158 1157
f 1790 1037 1789
f 1661 1059 1060
f 1060 1061 1661
f 1061 1062 1661
f 262 1954 222
f 1954 261 260
f 223 1954 1913
f 261 1951 260
f 260 226 1923
f 260 1923 225
f 1954 223 1912
f 1954 260 1913
f 260 225 1917
f 260 1917 224
f 260 224 1913
f 1954 1912 222
f 263 262 289
f 262 222 221
f 264 263 289
f 262 221 1998
f 221 220 1998
f 262 1998 289
f 1956 264 289
f 288 287 1962
f 287 265 1962
f 1956 289 288
f 1958 1956 288
f 1960 1958 288
f 2058 168 781
f 2035 2037 2034
f 2037 2039 2034
f 2034 2039 2036
f 1526 1525 1523
f 1990 283 1992
f 1992 1994 1990
f 1994 1993 1991
f 1535 1537 1536
f 1322 1321 1320
f 878 1963 1964
f 1090 1088 1704
f 1707 1711 1090
f 1711 1089 1714
f 1090 1711 1714
f 251 234 237
f 234 1935 236
f 237 234 236
f 1578 1577 1575
f 2193 2195 2194
f 1053 1090 1091
f 1091 1050 1053
f 1050 1051 1053
f 463 1662 445
f 600 1316 1315
f 559 1433 1434
f 1434 1182 1181
f 1181 1180 1434
f 1223 1313 1314
f 587 586 551
f 551 1425 1423
f 1423 1422 588
f 588 587 1423
f 2246 2245 670
f 243 246 247
f 1628 1629 1631
f 1631 1632 1628
f 1632 1112 1630
f 1114 1594 1093
f 1594 1092 1093
f 1093 1094 1095
f 1095 1113 1114
f 234 251 238
f 1827 1829 1828
f 1132 1123 1124
f 1124 1127 1132
f 1127 1128 1132
f 1128 1129 1132
f 1129 1130 1132
f 1989 283 1990
f 1347 1346 1241
f 2126 2128 2127
f 1168 1571 1121
f 1344 1343 1341
f 1993 1994 1996
f 1996 1998 1993
f 1998 1997 1995
f 1120 1121 1134
f 1479 1478 1476
f 1152 1153 1150
f 1899 822 1895
f 822 1901 1895
f 1901 891 892
f 892 820 1901
f 820 1895 1901
f 1462 574 1463
f 1463 1194 1461
f 1461 573 1462
f 1923 1925 1926
f 1925 1927 1926
f 1926 1924 1923
f 2130 2132 2131
f 1393 1395 1394
f 1515 1156 1115
f 1115 1116 1515
f 1116 1117 1515
f 1117 1510 1512
f 1510 1118 1512
f 1324 1323 1321
f 1430 1432 559
f 559 1180 1431
f 1431 1429 1430
f 397 1765 1013
f 2271 2272 64
f 64 65 2271
f 65 685 2273
f 1100 1095 1096
f 1096 1097 1100
f 1097 1098 1100
f 1100 1098 1601
f 1601 1603 1100
f 1100 1603 1099
f 1183 1171 1172
f 1172 1177 1183
f 1177 1178 1435
f 1183 1177 1435
f 1178 1179 1182
f 1179 1180 1181
f 1182 1179 1181
f 74 694 2292
f 481 480 485
f 480 479 485
f 481 485 482
f 485 484 1604
f 484 483 1604
f 1604 1602 485
f 900 901 877
f 1719 1717 1718
f 1184 1456 1195
f 1473 1472 1470
f 1205 1206 1183
f 1183 1440 1483
f 1440 1184 1199
f 1184 1197 1198
f 1184 1198 1199
f 1484 1205 1183
f 1483 1484 1183
f 1440 1199 1200
f 1440 1200 1201
f 1204 1483 1440
f 1203 1204 1440
f 1440 1201 1202
f 1312 1314 1313
f 1373 1374 1264
f 1934 845 847
f 845 861 848
f 848 847 845
f 2149 2151 2150
f 2150 2148 2149
f 2148 2146 2149
f 2146 2144 2149
f 2144 2145 2147
f 1258 1259 1257
f 1259 1248 1249
f 1256 1259 1249
f 1545 1543 1544
f 1262 1246 1247
f 1247 1259 1262
f 1259 1260 1261
f 1872 1871 319
f 2311 2313 2312
f 134 135 754
f 294 2001 2000
f 1999 1997 1998
f 294 2000 1999
f 2173 2172 2170
f 132 136 135
f 1382 1383 1263
f 1263 1264 1267
f 1264 1265 1266
f 1264 1266 1378
f 1381 1382 1263
f 1380 1381 1263
f 1264 1378 1267
f 1268 1380 1263
f 1965 270 883
f 1400 1399 652
f 306 1854 1853
f 2167 2166 2164
f 1279 1280 1411
f 1280 1281 1411
f 1411 1281 1408
f 1281 1406 1408
f 1411 1282 1279
f 1283 1320 1232
f 1283 1232 1233
f 1282 1283 1234
f 1329 1282 1234
f 1240 1241 1238
f 1241 1279 1336
f 1338 1239 1240
f 1337 1238 1241
f 1238 1338 1240
f 1336 1337 1241
f 1282 1329 1331
f 1279 1282 1237
f 1283 1233 1234
f 1237 1336 1279
f 1282 1331 1235
f 1333 1237 1282
f 1236 1333 1282
f 1692 1694 1693
f 297 296 215
f 215 214 301
f 214 213 2011
f 215 300 299
f 213 1902 2011
f 1902 282 281
f 1902 281 280
f 297 215 298
f 300 215 301
f 298 215 299
f 1902 280 2013
f 1902 2013 2011
f 301 214 2010
f 1800 434 1048
f 367 423 422
f 422 370 367
f 370 369 368
f 649 648 624
f 623 1401 652
f 623 652 651
f 649 624 1390
f 624 623 650
f 1390 624 650
f 623 651 1397
f 623 1397 1393
f 2289 2288 2286
f 1814 964 962
f 731 732 752
f 732 733 752
f 733 734 752
f 1284 1285 1220
f 1285 1212 1220
f 1220 1212 1286
f 1286 1213 1220
f 1213 1214 1218
f 1214 1215 1217
f 1215 1216 1217
f 1217 1218 1214
f 1218 1219 1213
f 1789 1008 994
f 1490 1492 1491
f 876 877 901
f 876 901 902
f 875 876 902
f 875 902 1957
f 902 903 874
f 1957 902 874
f 1997 830 831
f 903 1997 872
f 874 903 1955
f 1955 903 873
f 873 903 872
f 1997 831 872
f 1952 1953 871
f 1953 872 1911
f 872 831 1911
f 1950 1952 871
f 1953 1911 832
f 837 871 836
f 836 871 1920
f 1920 871 835
f 1953 832 833
f 835 871 1914
f 1914 871 834
f 1953 833 834
f 2224 2225 724
f 2225 2226 2227
f 724 2225 2227
f 2121 2122 2123
f 2122 2124 2123
f 2124 2126 2123
f 1591 1593 1592
f 1783 1785 1784
f 599 1222 1303
f 2003 2005 2007
f 2007 2006 2004
f 2004 2002 2003
f 2057 2055 2056
f 582 583 584
f 584 1483 582
f 1483 1204 582
f 519 1549 503
f 503 502 520
f 502 1516 1559
f 503 520 1557
f 1516 523 1563
f 1516 1563 1561
f 519 503 1557
f 520 502 521
f 1516 1561 1559
f 1559 522 502
f 1582 1583 1584
f 1583 1585 1587
f 1584 1583 1586
f 320 934 933
f 608 1320 1318
f 2190 2189 153
f 1771 1770 1768
f 2073 787 783
f 783 784 2064
f 784 2061 2064
f 783 785 2066
f 2061 2062 2064
f 2064 785 783
f 786 2073 783
f 1861 313 926
f 76 2297 696
f 1886 1885 1883
f 1568 1151 1150
f 170 2060 2059
f 1813 962 960
f 356 1827 975
f 2065 785 2064
f 2270 2272 2271
f 394 1764 1763
f 2021 202 2022
f 422 423 1035
f 1274 1391 1392
f 1165 1123 1132
f 1374 640 1265
f 1720 1722 1721
f 1609 1611 1610
f 1567 1150 1566
f 110 109 132
f 109 2151 132
f 132 112 111
f 1679 1681 1682
f 1682 1072 1679
f 1072 1680 1679
f 47 670 669
f 648 647 638
f 133 134 2152
f 2256 2257 2259
f 2257 55 2259
f 2259 2258 675
f 1463 1464 1456
f 1456 1498 1191
f 1456 1191 1192
f 1194 1463 1456
f 1461 1194 1456
f 1456 1192 1193
f 1529 1528 1122
f 1420 1422 1421
f 1423 1170 1421
f 1425 1424 1170
f 1425 551 1171
f 1987 1989 1988
f 1270 1246 1262
f 456 1071 1676
f 854 853 857
f 730 704 705
f 705 2196 707
f 2196 706 707
f 707 726 2230
f 729 730 707
f 730 705 707
f 707 2230 727
f 728 729 707
f 363 362 335
f 335 334 364
f 1496 1211 1495
f 1362 1364 1363
f 1583 1582 1158
f 1457 1420 1169
f 1459 571 1191
f 2075 2076 2077
f 2076 2078 792
f 2077 2076 792
f 2222 719 2220
f 1465 1464 1463
f 1607 492 491
f 1607 491 1625
f 1612 1609 1607
f 1613 486 487
f 486 1612 487
f 1612 1607 1625
f 1612 1625 490
f 488 487 1612
f 1621 488 1612
f 1612 490 1622
f 489 1621 1612
f 1854 1856 1855
f 616 1238 1337
f 1482 1201 1480
f 1367 1369 1368
f 2143 2145 2144
f 1682 458 459
f 459 1684 1682
f 1684 1683 1074
f 1684 1074 1073
f 1072 1682 1684
f 1635 1636 1638
f 1638 1639 1635
f 1639 1052 1637
f 1945 1947 1946
f 1497 1499 1498
f 1499 1459 1458
f 1434 560 1435
f 2260 2258 2259
f 642 1268 1267
f 1427 1426 1171
f 1516 1515 1513
f 1518 1517 1515
f 1520 1519 1517
f 1408 1406 1407
f 1976 1975 1973
f 851 859 860
f 1427 1428 1429
f 1428 1430 1429
f 1429 1176 1427
f 1540 1542 1541
f 1818 1817 1815
f 518 1549 1136
f 1553 1555 1554
f 1555 1557 1556
f 1557 520 1138
f 520 521 1139
f 1943 1941 1942
f 2265 60 680
f 533 1152 1151
f 752 734 754
f 538 1573 1571
f 1437 1439 1438
f 52 2254 2252
f 2100 2102 2101
f 2101 2099 2100
f 2099 2150 2151
f 99 2212 2211
f 2231 105 90
f 90 89 88
f 88 87 90
f 87 86 2238
f 87 2238 90
f 106 2231 90
f 90 2238 108
f 107 106 90
f 1595 477 1092
f 1596 1093 1092
f 478 1094 1093
f 478 479 1095
f 1744 1743 1741
f 533 1570 1569
f 322 1878 1876
f 485 1607 1606
f 1607 1609 1608
f 661 1413 1412
f 1381 644 1382
f 644 645 646
f 1382 644 646
f 486 1613 1103
f 473 1704 1088
f 1756 1758 1757
f 2295 2294 694
f 1619 1618 1104
f 488 1105 1618
f 1621 1620 1105
f 489 1106 1620
f 1043 1044 996
f 1379 1267 1378
f 1879 936 1878
f 412 1028 1772
f 1399 1398 651
f 522 1559 1139
f 1559 1140 1139
f 1140 1558 1139
f 1377 1376 1266
f 82 2305 2303
f 2305 2307 2303
f 2307 2306 2304
f 1675 454 1070
f 1372 1370 1371
f 373 1733 1732
f 1978 1977 1975
f 720 721 716
f 716 2211 718
f 2211 717 2216
f 718 2211 2216
f 719 720 716
f 1689 1691 1690
f 1580 1579 1577
f 2253 2252 2250
f 792 179 2079
f 179 2080 180
f 2079 179 180
f 1829 358 1831
f 1831 1830 977
f 977 1828 1831
f 208 818 1893
f 2085 795 2084
f 1913 224 1914
f 1914 834 833
f 833 223 1914
f 483 484 485
f 485 1100 1099
f 1099 1605 485
f 1483 584 1486
f 584 1485 1486
f 1486 1205 1484
f 1548 518 1135
f 1713 1089 1711
f 2261 2263 2262
f 1802 981 982
f 982 983 1802
f 1353 1355 1356
f 1355 1357 1358
f 1356 1355 1358
f 1357 1359 1358
f 1352 1353 1354
f 1108 1109 1606
f 1606 1608 1101
f 1101 1102 1104
f 1102 1103 1104
f 1108 1606 1624
f 1606 1101 1624
f 1101 1104 1105
f 1101 1105 1620
f 1623 1624 1101
f 1107 1623 1101
f 1101 1620 1106
f 1305 1222 599
f 1836 1834 1835
f 1413 1415 1414
f 1684 464 1683
f 464 466 1683
f 466 1685 1079
f 1546 1548 1547
f 1565 524 1566
f 1566 1564 1563
f 1564 1562 1563
f 1444 1446 1445
f 1908 1910 1907
f 1910 1909 1907
f 1907 1905 1908
f 646 1385 1383
f 1385 1387 1383
f 1387 1386 1384
f 302 917 1885
f 883 1966 882
f 1966 884 882
f 884 885 891
f 885 886 1982
f 891 885 1982
f 886 887 890
f 887 888 889
f 890 887 889
f 890 1982 886
f 1391 1273 650
f 171 172 2059
f 172 2061 784
f 2059 172 784
f 392 393 1010
f 1662 1661 1659
f 49 2249 2247
f 2093 2094 2095
f 2094 2096 2098
f 2095 2094 2097
f 1700 468 1698
f 468 1701 1698
f 1701 1084 1698
f 1237 1335 1336
f 1335 614 1336
f 614 615 1336
f 1775 1774 1028
f 77 2298 2297
f 415 1781 1780
f 780 2048 778
f 2048 777 778
f 778 779 780
f 44 2244 2243
f 2243 2242 2241
f 2242 2240 2241
f 355 972 971
f 2313 2275 2274
f 2044 2042 2043
f 424 1789 1036
f 1494 1495 1211
f 1342 1341 1339
f 1612 486 1102
f 1501 1503 1502
f 1319 1318 1225
f 2235 2237 2233
f 2237 2236 2234
f 2234 2232 2237
f 333 334 951
f 335 1802 951
f 335 336 1803
f 1805 1804 1803
f 337 952 1804
f 337 1807 1806
f 1864 315 1866
f 1866 1868 1864
f 1868 1867 1864
f 1816 1815 964
f 46 669 2243
f 1397 651 1398
f 1922 1921 1920
f 336 1807 337
f 1822 1823 971
f 1561 1563 1562
f 1562 1560 1140
f 1140 1559 1561
f 1799 1042 1798
f 1615 1614 1103
f 1586 1587 1591
f 1587 1589 1591
f 1591 1590 1588
f 2251 2250 2249
f 371 372 1732
f 1732 1731 1729
f 1729 1730 371
f 1985 1987 1986
f 1848 944 945
f 945 946 1848
f 1551 1553 1552
f 1902 1901 822
f 1742 1741 994
f 272 271 269
f 271 270 269
f 269 1983 272
f 1983 276 273
f 272 1983 273
f 274 273 276
f 274 276 1981
f 1979 275 1980
f 275 274 1981
f 2239 65 64
f 64 63 2239
f 63 2270 44
f 43 63 44
f 2270 48 47
f 47 46 2270
f 46 45 2270
f 45 44 2270
f 1843 1844 985
f 366 1845 985
f 1847 1846 1845
f 1847 1843 1842
f 303 918 917
f 303 1849 1848
f 304 919 1848
f 304 305 1850
f 305 1852 1851
f 306 920 1851
f 687 2280 671
f 671 2249 703
f 2249 672 702
f 703 2249 702
f 673 2300 2301
f 673 2301 700
f 672 673 701
f 686 687 671
f 703 686 671
f 673 700 2303
f 673 2303 701
f 434 435 1049
f 1773 1772 1770
f 1009 1759 1760
f 319 1871 931
f 2003 2002 2000
f 2162 761 2160
f 490 1625 1627
f 1627 1629 490
f 1629 1628 1626
f 1629 1626 1624
f 1623 490 1629
f 2279 2281 2280
f 2169 2168 2166
f 1300 1299 1297
f 1053 1087 1088
f 1184 1185 1456
f 1185 1449 1456
f 1449 1450 1456
f 1450 1186 1190
f 1456 1450 1190
f 1186 1187 1190
f 1187 1451 1190
f 1451 1188 1189
f 1890 1889 1887
f 1890 1891 949
f 1891 1892 950
f 1888 1887 950
f 1844 1843 1847
f 1898 1897 821
f 212 1899 1897
f 1900 822 1899
f 1940 1942 1941
f 2221 2220 718
f 1916 1915 1914
f 1917 835 1915
f 1919 1918 835
f 225 1920 1918
f 540 1157 1579
f 1912 223 833
f 833 832 1911
f 1911 222 833
f 1933 1932 1930
f 235 846 1934
f 311 1859 1858
f 1944 1945 869
f 896 897 1901
f 1901 823 916
f 823 824 916
f 1901 916 2012
f 824 825 914
f 825 909 910
f 825 910 911
f 896 1901 895
f 895 1901 2012
f 825 911 912
f 825 912 913
f 825 913 914
f 915 916 824
f 1947 259 1948
f 259 1949 870
f 1949 260 871
f 260 1951 1950
f 1739 1738 1736
f 264 1956 874
f 1956 1958 1957
f 1958 1960 1959
f 1960 1961 875
f 1980 889 888
f 1652 1651 1649
f 271 1966 883
f 323 1880 936
f 211 821 1895
f 1979 888 1977
f 414 1780 1778
f 2153 754 135
f 1896 1895 818
f 567 568 1450
f 568 1187 1450
f 1187 1186 1450
f 2022 813 2023
f 813 814 2023
f 817 811 812
f 2022 2023 2027
f 2023 2024 2027
f 817 812 2022
f 816 2027 815
f 2027 817 2022
f 1838 1836 1837
f 783 781 168
f 1291 1292 1216
f 1216 1290 1288
f 1288 1289 1291
f 163 162 161
f 161 160 189
f 160 159 189
f 189 159 190
f 159 2037 190
f 2037 2035 192
f 190 2037 191
f 2035 158 157
f 157 156 155
f 157 155 194
f 2035 157 194
f 2035 194 193
f 163 161 189
f 191 2037 192
f 2228 2229 2233
f 2229 2231 2233
f 2233 2232 2228
f 2232 2230 2228
f 2227 2228 725
f 1733 373 1736
f 373 1735 1736
f 1735 1737 1736
f 2011 2013 2012
f 2013 1985 1984
f 2094 2093 2092
f 196 2017 2016
f 203 813 2022
f 203 204 814
f 204 205 2023
f 205 206 2024
f 206 2025 815
f 2025 2026 816
f 1308 599 1304
f 598 601 1317
f 598 1317 1316
f 1308 1304 598
f 1312 1308 598
f 598 1316 600
f 1314 1312 598
f 156 2031 773
f 157 2032 2031
f 157 158 2033
f 158 2035 2034
f 2225 2224 720
f 1710 1709 1707
f 1701 468 1702
f 468 469 1702
f 469 1703 1702
f 244 1936 846
f 976 977 969
f 969 970 974
f 970 1821 972
f 973 970 972
f 1821 971 972
f 975 976 969
f 1826 975 969
f 970 973 974
f 1570 1501 1500
f 423 1724 1723
f 1600 482 1602
f 1602 1601 1600
f 1601 1098 1600
f 1482 581 582
f 582 1203 1482
f 1203 1202 1482
f 1834 1832 1833
f 456 457 1679
f 1679 1678 456
f 1678 1677 456
f 2063 2062 2061
f 173 2064 2062
f 1311 1309 1310
f 2067 2066 785
f 2069 2068 2066
f 2070 786 2068
f 2072 2071 786
f 2074 2073 2071
f 1361 1362 1359
f 1362 1259 1360
f 1360 1358 1362
f 1825 356 1826
f 2083 2082 794
f 181 2084 2082
f 674 53 2255
f 53 54 2256
f 2255 53 2256
f 2087 2086 795
f 182 2088 2086
f 183 796 2088
f 2090 2089 796
f 184 2091 2089
f 1688 1686 1687
f 1660 1659 1657
f 1671 1669 1670
f 1317 601 1225
f 1225 1224 1315
f 1315 1316 1317
f 1810 1809 1808
f 1820 1819 1817
f 1405 659 1407
f 1407 1406 1281
f 1407 1281 1404
f 1403 1405 1407
f 1400 1401 1402
f 1401 1403 1402
f 1407 1404 1402
f 779 2051 2052
f 418 422 1787
f 329 328 1849
f 1849 303 330
f 196 807 2014
f 563 576 575
f 2278 2276 2277
f 2034 2036 803
f 2036 774 801
f 774 775 800
f 775 776 2048
f 800 775 2048
f 800 801 774
f 2036 801 802
f 2032 2033 2034
f 773 2031 2032
f 805 773 2032
f 805 2032 2034
f 804 805 2034
f 2036 802 803
f 2009 2010 2011
f 2011 916 915
f 915 2008 2011
f 393 1762 1761
f 968 978 979
f 166 2056 2055
f 2048 2046 2047
f 355 1823 1822
f 1822 354 355
f 354 353 1825
f 355 354 1824
f 353 358 357
f 353 357 1827
f 1824 354 1825
f 353 1827 356
f 2207 98 2208
f 1647 1646 1644
f 1389 1390 1272
f 2191 154 2192
f 2307 2309 2308
f 2275 2277 2276
f 87 705 704
f 88 2196 705
f 88 89 706
f 89 90 707
f 207 2026 206
f 2026 2025 206
f 201 200 207
f 204 203 205
f 203 202 205
f 202 201 207
f 207 206 205
f 438 475 472
f 1296 1295 1293
f 1351 1350 1348
f 2214 2215 717
f 101 2216 717
f 2218 2217 2216
f 263 264 1955
f 1746 1745 1743
f 1769 1768 1766
f 1417 1419 1418
f 1863 315 1864
f 2112 2111 2109
f 889 1980 890
f 1980 1981 276
f 890 1980 1982
f 1740 391 424
f 1531 1533 1535
f 1535 1534 1532
f 1532 1530 1531
f 1759 1757 1758
f 1134 1121 1571
f 2291 2290 2288
f 61 681 680
f 62 2266 681
f 62 2267 682
f 2269 2268 682
f 2270 683 2268
f 1968 1967 1966
f 1078 1079 1059
f 1927 1929 1930
f 1929 1931 1930
f 1930 1928 1927
f 1654 1653 1651
f 937 938 1867
f 1867 930 934
f 930 931 933
f 933 931 932
f 931 1871 1872
f 931 1872 932
f 936 937 1867
f 935 936 1867
f 930 933 934
f 98 2210 2209
f 2138 126 2139
f 1882 1881 1880
f 1777 1776 1774
f 1529 508 1530
f 508 1531 1530
f 1530 1126 1529
f 1205 1486 1488
f 1488 1490 1205
f 1490 1489 1487
f 571 1499 1457
f 1457 1465 574
f 1457 574 1462
f 572 571 1457
f 1460 572 1457
f 1457 1462 573
f 1812 960 1811
f 1524 1523 1521
f 2210 99 715
f 2179 2181 2180
f 2178 2176 2177
f 2179 2180 2177
f 1716 1718 1717
f 1867 939 940
f 2175 2174 2172
f 2042 2040 2041
f 2177 2176 2174
f 1340 1339 1338
f 455 1676 1070
# 3122 faces
